solid OpenSCAD_Model
  facet normal -1 0 0
    outer loop
      vertex -4.875 31.5484 0
      vertex -4.875 35 9.75
      vertex -4.875 35 0
    endloop
  endfacet
  facet normal -1 -0 0
    outer loop
      vertex -4.875 35 9.75
      vertex -4.875 31.5484 0
      vertex -4.875 31.5484 9.75
    endloop
  endfacet
  facet normal -1 0 0
    outer loop
      vertex -4.875 6 0
      vertex -4.875 28.4516 9.75
      vertex -4.875 28.4516 0
    endloop
  endfacet
  facet normal -1 -0 0
    outer loop
      vertex -4.875 28.4516 9.75
      vertex -4.875 6 0
      vertex -4.875 6 9.75
    endloop
  endfacet
  facet normal -0 0 1
    outer loop
      vertex 1.09361 35 9.75
      vertex 4.875 31.5484 9.75
      vertex 4.875 35 9.75
    endloop
  endfacet
  facet normal 0 0 1
    outer loop
      vertex 4.875 31.5484 9.75
      vertex 1.09361 35 9.75
      vertex 4.875 28.4516 9.75
    endloop
  endfacet
  facet normal 0 0 1
    outer loop
      vertex 4.875 28.4516 9.75
      vertex 1.09361 35 9.75
      vertex -4.875 28.4516 9.75
    endloop
  endfacet
  facet normal 0 0 1
    outer loop
      vertex 5.08459 30.6423 9.75
      vertex 5.08459 29.3577 9.75
      vertex 5.125 30 9.75
    endloop
  endfacet
  facet normal 0 0 1
    outer loop
      vertex 4.875 31.5484 9.75
      vertex 5.08459 30.6423 9.75
      vertex 4.96399 31.2745 9.75
    endloop
  endfacet
  facet normal 0 0 1
    outer loop
      vertex 5.08459 30.6423 9.75
      vertex 4.875 31.5484 9.75
      vertex 5.08459 29.3577 9.75
    endloop
  endfacet
  facet normal 0 0 1
    outer loop
      vertex 4.875 28.4516 9.75
      vertex 5.08459 29.3577 9.75
      vertex 4.875 31.5484 9.75
    endloop
  endfacet
  facet normal 0 0 1
    outer loop
      vertex 5.08459 29.3577 9.75
      vertex 4.875 28.4516 9.75
      vertex 4.96399 28.7255 9.75
    endloop
  endfacet
  facet normal -0 0 1
    outer loop
      vertex 4.875 6 9.75
      vertex 7.5 0 9.75
      vertex 7.5 6 9.75
    endloop
  endfacet
  facet normal 0 0 1
    outer loop
      vertex -7.5 0 9.75
      vertex 7.5 0 9.75
      vertex 4.875 6 9.75
    endloop
  endfacet
  facet normal 0 0 1
    outer loop
      vertex 7.5 0 9.75
      vertex -7.5 0 9.75
      vertex 7.5 -10 9.75
    endloop
  endfacet
  facet normal 0 0 1
    outer loop
      vertex 4.875 28.4516 9.75
      vertex -4.875 28.4516 9.75
      vertex 4.875 6 9.75
    endloop
  endfacet
  facet normal 0 0 1
    outer loop
      vertex 0.321801 35.1149 9.75
      vertex 1.09361 35 9.75
      vertex 0.960329 35.0342 9.75
    endloop
  endfacet
  facet normal 0 0 1
    outer loop
      vertex 1.09361 35 9.75
      vertex 0.321801 35.1149 9.75
      vertex -4.875 28.4516 9.75
    endloop
  endfacet
  facet normal 0 0 1
    outer loop
      vertex -7.5 0 9.75
      vertex 4.875 6 9.75
      vertex -4.875 6 9.75
    endloop
  endfacet
  facet normal 0 0 1
    outer loop
      vertex -4.875 28.4516 9.75
      vertex 0.321801 35.1149 9.75
      vertex -0.321801 35.1149 9.75
    endloop
  endfacet
  facet normal 0 0 1
    outer loop
      vertex -1.09361 35 9.75
      vertex -0.321801 35.1149 9.75
      vertex -0.960329 35.0342 9.75
    endloop
  endfacet
  facet normal 0 0 1
    outer loop
      vertex -0.321801 35.1149 9.75
      vertex -1.09361 35 9.75
      vertex -4.875 28.4516 9.75
    endloop
  endfacet
  facet normal 0 0 1
    outer loop
      vertex -4.875 31.5484 9.75
      vertex -1.09361 35 9.75
      vertex -4.875 35 9.75
    endloop
  endfacet
  facet normal 0 0 1
    outer loop
      vertex -4.875 28.4516 9.75
      vertex -1.09361 35 9.75
      vertex -4.875 31.5484 9.75
    endloop
  endfacet
  facet normal 0 0 1
    outer loop
      vertex 4.875 6 9.75
      vertex -4.875 28.4516 9.75
      vertex -4.875 6 9.75
    endloop
  endfacet
  facet normal 0 0 1
    outer loop
      vertex 7.5 -10 9.75
      vertex -7.5 0 9.75
      vertex -7.5 -10 9.75
    endloop
  endfacet
  facet normal 0 0 1
    outer loop
      vertex 7.5 -10 9.75
      vertex -7.5 -10 9.75
      vertex 5.625 -16.6667 9.75
    endloop
  endfacet
  facet normal 0 0 1
    outer loop
      vertex -7.5 0 9.75
      vertex -4.875 6 9.75
      vertex -7.5 6 9.75
    endloop
  endfacet
  facet normal 0 -0 1
    outer loop
      vertex -5.625 -16.6667 9.75
      vertex 5.625 -16.6667 9.75
      vertex -7.5 -10 9.75
    endloop
  endfacet
  facet normal 0 0 1
    outer loop
      vertex 5.625 -16.6667 9.75
      vertex -5.625 -16.6667 9.75
      vertex 0 -20 9.75
    endloop
  endfacet
  facet normal 0 0 1
    outer loop
      vertex -5.625 -16.6667 9.75
      vertex -7.5 -10 9.75
      vertex -11.25 -20 9.75
    endloop
  endfacet
  facet normal -0 0 1
    outer loop
      vertex 7.5 0 9.75
      vertex 15 -6.66666 9.75
      vertex 22.5 0 9.75
    endloop
  endfacet
  facet normal 0 0 1
    outer loop
      vertex 15 -6.66666 9.75
      vertex 7.5 0 9.75
      vertex 7.5 -10 9.75
    endloop
  endfacet
  facet normal 0 0 1
    outer loop
      vertex 11.25 -20 9.75
      vertex 7.5 -10 9.75
      vertex 5.625 -16.6667 9.75
    endloop
  endfacet
  facet normal 0 0 1
    outer loop
      vertex -7.5 0 9.75
      vertex -15 -6.66666 9.75
      vertex -7.5 -10 9.75
    endloop
  endfacet
  facet normal 0 -0 1
    outer loop
      vertex -15 -6.66666 9.75
      vertex -7.5 0 9.75
      vertex -22.5 0 9.75
    endloop
  endfacet
  facet normal 0 0 1
    outer loop
      vertex -5.08459 30.6423 9.75
      vertex -4.875 31.5484 9.75
      vertex -4.96399 31.2745 9.75
    endloop
  endfacet
  facet normal 0 0 1
    outer loop
      vertex -4.875 31.5484 9.75
      vertex -5.08459 30.6423 9.75
      vertex -4.875 28.4516 9.75
    endloop
  endfacet
  facet normal -0 0 1
    outer loop
      vertex -5.08459 29.3577 9.75
      vertex -4.875 28.4516 9.75
      vertex -5.08459 30.6423 9.75
    endloop
  endfacet
  facet normal 0 0 1
    outer loop
      vertex -4.875 28.4516 9.75
      vertex -5.08459 29.3577 9.75
      vertex -4.96399 28.7255 9.75
    endloop
  endfacet
  facet normal 0 -0 1
    outer loop
      vertex -5.08459 29.3577 9.75
      vertex -5.08459 30.6423 9.75
      vertex -5.125 30 9.75
    endloop
  endfacet
  facet normal 1 -0 0
    outer loop
      vertex 4.875 31.5484 9.75
      vertex 4.875 35 0
      vertex 4.875 35 9.75
    endloop
  endfacet
  facet normal 1 0 0
    outer loop
      vertex 4.875 35 0
      vertex 4.875 31.5484 9.75
      vertex 4.875 31.5484 0
    endloop
  endfacet
  facet normal 1 -0 0
    outer loop
      vertex 4.875 6 9.75
      vertex 4.875 28.4516 0
      vertex 4.875 28.4516 9.75
    endloop
  endfacet
  facet normal 1 0 0
    outer loop
      vertex 4.875 28.4516 0
      vertex 4.875 6 9.75
      vertex 4.875 6 0
    endloop
  endfacet
  facet normal 0 1 -0
    outer loop
      vertex 4.875 35 0
      vertex 1.09361 35 9.75
      vertex 4.875 35 9.75
    endloop
  endfacet
  facet normal 0 1 0
    outer loop
      vertex 1.09361 35 9.75
      vertex 4.875 35 0
      vertex 1.09361 35 0
    endloop
  endfacet
  facet normal 0 1 -0
    outer loop
      vertex -1.09361 35 0
      vertex -4.875 35 9.75
      vertex -1.09361 35 9.75
    endloop
  endfacet
  facet normal 0 1 0
    outer loop
      vertex -4.875 35 9.75
      vertex -1.09361 35 0
      vertex -4.875 35 0
    endloop
  endfacet
  facet normal 0 0 -1
    outer loop
      vertex -15 -6.66666 0
      vertex -7.5 0 0
      vertex -7.5 -10 0
    endloop
  endfacet
  facet normal -0 0 -1
    outer loop
      vertex -7.5 0 0
      vertex -15 -6.66666 0
      vertex -22.5 0 0
    endloop
  endfacet
  facet normal -0 0 -1
    outer loop
      vertex -5.625 -16.6667 0
      vertex -11.25 -20 0
      vertex -7.5 -10 0
    endloop
  endfacet
  facet normal 0 0 -1
    outer loop
      vertex -5.08459 29.3577 0
      vertex -4.875 28.4516 0
      vertex -4.96399 28.7255 0
    endloop
  endfacet
  facet normal 0 0 -1
    outer loop
      vertex -4.875 28.4516 0
      vertex -5.08459 29.3577 0
      vertex -4.875 31.5484 0
    endloop
  endfacet
  facet normal 0 0 -1
    outer loop
      vertex -5.08459 30.6423 0
      vertex -4.875 31.5484 0
      vertex -5.08459 29.3577 0
    endloop
  endfacet
  facet normal 0 0 -1
    outer loop
      vertex -4.875 31.5484 0
      vertex -5.08459 30.6423 0
      vertex -4.96399 31.2745 0
    endloop
  endfacet
  facet normal 0 -0 -1
    outer loop
      vertex -5.08459 30.6423 0
      vertex -5.08459 29.3577 0
      vertex -5.125 30 0
    endloop
  endfacet
  facet normal 0 0 -1
    outer loop
      vertex -7.5 0 0
      vertex 7.5 0 0
      vertex 7.5 -10 0
    endloop
  endfacet
  facet normal 0 0 -1
    outer loop
      vertex 5.625 -16.6667 0
      vertex 7.5 -10 0
      vertex 11.25 -20 0
    endloop
  endfacet
  facet normal 0 0 -1
    outer loop
      vertex -7.5 -10 0
      vertex 7.5 -10 0
      vertex 5.625 -16.6667 0
    endloop
  endfacet
  facet normal 0 0 -1
    outer loop
      vertex 7.5 0 0
      vertex 4.875 6 0
      vertex 7.5 6 0
    endloop
  endfacet
  facet normal 0 0 -1
    outer loop
      vertex -4.875 28.4516 0
      vertex 4.875 28.4516 0
      vertex 4.875 6 0
    endloop
  endfacet
  facet normal 0 0 -1
    outer loop
      vertex 4.875 28.4516 0
      vertex -4.875 28.4516 0
      vertex 4.875 31.5484 0
    endloop
  endfacet
  facet normal 0 -0 -1
    outer loop
      vertex 1.09361 35 0
      vertex 4.875 31.5484 0
      vertex -4.875 28.4516 0
    endloop
  endfacet
  facet normal 0 0 -1
    outer loop
      vertex -7.5 0 0
      vertex 7.5 -10 0
      vertex -7.5 -10 0
    endloop
  endfacet
  facet normal 0 0 -1
    outer loop
      vertex -4.875 28.4516 0
      vertex 4.875 6 0
      vertex -4.875 6 0
    endloop
  endfacet
  facet normal 0 0 -1
    outer loop
      vertex 4.875 31.5484 0
      vertex 1.09361 35 0
      vertex 4.875 35 0
    endloop
  endfacet
  facet normal 0 0 -1
    outer loop
      vertex -5.625 -16.6667 0
      vertex 5.625 -16.6667 0
      vertex 0 -20 0
    endloop
  endfacet
  facet normal 0 -0 -1
    outer loop
      vertex 0.321801 35.1149 0
      vertex 1.09361 35 0
      vertex -4.875 28.4516 0
    endloop
  endfacet
  facet normal 0 0 -1
    outer loop
      vertex 1.09361 35 0
      vertex 0.321801 35.1149 0
      vertex 0.960329 35.0342 0
    endloop
  endfacet
  facet normal -0 0 -1
    outer loop
      vertex 0.321801 35.1149 0
      vertex -4.875 28.4516 0
      vertex -0.321801 35.1149 0
    endloop
  endfacet
  facet normal 0 -0 -1
    outer loop
      vertex -1.09361 35 0
      vertex -0.321801 35.1149 0
      vertex -4.875 28.4516 0
    endloop
  endfacet
  facet normal 0 0 -1
    outer loop
      vertex 5.625 -16.6667 0
      vertex -5.625 -16.6667 0
      vertex -7.5 -10 0
    endloop
  endfacet
  facet normal 0 0 -1
    outer loop
      vertex 7.5 0 0
      vertex -7.5 0 0
      vertex 4.875 6 0
    endloop
  endfacet
  facet normal -0 0 -1
    outer loop
      vertex 4.875 6 0
      vertex -7.5 0 0
      vertex -4.875 6 0
    endloop
  endfacet
  facet normal -0 0 -1
    outer loop
      vertex -4.875 6 0
      vertex -7.5 0 0
      vertex -7.5 6 0
    endloop
  endfacet
  facet normal 0 0 -1
    outer loop
      vertex 7.5 0 0
      vertex 15 -6.66666 0
      vertex 7.5 -10 0
    endloop
  endfacet
  facet normal 0 0 -1
    outer loop
      vertex 15 -6.66666 0
      vertex 7.5 0 0
      vertex 22.5 0 0
    endloop
  endfacet
  facet normal 0 0 -1
    outer loop
      vertex 5.08459 29.3577 0
      vertex 5.08459 30.6423 0
      vertex 5.125 30 0
    endloop
  endfacet
  facet normal 0 0 -1
    outer loop
      vertex 4.875 28.4516 0
      vertex 5.08459 29.3577 0
      vertex 4.96399 28.7255 0
    endloop
  endfacet
  facet normal -0 0 -1
    outer loop
      vertex 5.08459 29.3577 0
      vertex 4.875 28.4516 0
      vertex 5.08459 30.6423 0
    endloop
  endfacet
  facet normal 0 0 -1
    outer loop
      vertex 4.875 31.5484 0
      vertex 5.08459 30.6423 0
      vertex 4.875 28.4516 0
    endloop
  endfacet
  facet normal 0 0 -1
    outer loop
      vertex 5.08459 30.6423 0
      vertex 4.875 31.5484 0
      vertex 4.96399 31.2745 0
    endloop
  endfacet
  facet normal 0 0 -1
    outer loop
      vertex -0.321801 35.1149 0
      vertex -1.09361 35 0
      vertex -0.960329 35.0342 0
    endloop
  endfacet
  facet normal 0 0 -1
    outer loop
      vertex -4.875 31.5484 0
      vertex -1.09361 35 0
      vertex -4.875 28.4516 0
    endloop
  endfacet
  facet normal -0 0 -1
    outer loop
      vertex -1.09361 35 0
      vertex -4.875 31.5484 0
      vertex -4.875 35 0
    endloop
  endfacet
  facet normal -1 0 0
    outer loop
      vertex -7.5 0 0
      vertex -7.5 6 9.75
      vertex -7.5 6 0
    endloop
  endfacet
  facet normal -1 -0 0
    outer loop
      vertex -7.5 6 9.75
      vertex -7.5 0 0
      vertex -7.5 0 9.75
    endloop
  endfacet
  facet normal 1 -0 0
    outer loop
      vertex 7.5 0 9.75
      vertex 7.5 6 0
      vertex 7.5 6 9.75
    endloop
  endfacet
  facet normal 1 0 0
    outer loop
      vertex 7.5 6 0
      vertex 7.5 0 9.75
      vertex 7.5 0 0
    endloop
  endfacet
  facet normal 0 1 -0
    outer loop
      vertex 7.5 6 0
      vertex 4.875 6 9.75
      vertex 7.5 6 9.75
    endloop
  endfacet
  facet normal 0 1 0
    outer loop
      vertex 4.875 6 9.75
      vertex 7.5 6 0
      vertex 4.875 6 0
    endloop
  endfacet
  facet normal 0 1 -0
    outer loop
      vertex -4.875 6 0
      vertex -7.5 6 9.75
      vertex -4.875 6 9.75
    endloop
  endfacet
  facet normal 0 1 0
    outer loop
      vertex -7.5 6 9.75
      vertex -4.875 6 0
      vertex -7.5 6 0
    endloop
  endfacet
  facet normal 0.998027 0.0627917 0
    outer loop
      vertex 5.125 30 9.75
      vertex 5.08459 30.6423 0
      vertex 5.08459 30.6423 9.75
    endloop
  endfacet
  facet normal 0.998027 0.0627917 0
    outer loop
      vertex 5.08459 30.6423 0
      vertex 5.125 30 9.75
      vertex 5.125 30 0
    endloop
  endfacet
  facet normal -0.125334 0.992115 0
    outer loop
      vertex -0.321801 35.1149 0
      vertex -0.960329 35.0342 9.75
      vertex -0.321801 35.1149 9.75
    endloop
  endfacet
  facet normal -0.125334 0.992115 0
    outer loop
      vertex -0.960329 35.0342 9.75
      vertex -0.321801 35.1149 0
      vertex -0.960329 35.0342 0
    endloop
  endfacet
  facet normal 0.982287 0.18738 0
    outer loop
      vertex 5.08459 30.6423 9.75
      vertex 4.96399 31.2745 0
      vertex 4.96399 31.2745 9.75
    endloop
  endfacet
  facet normal 0.982287 0.18738 0
    outer loop
      vertex 4.96399 31.2745 0
      vertex 5.08459 30.6423 9.75
      vertex 5.08459 30.6423 0
    endloop
  endfacet
  facet normal -0.951056 0.309019 0
    outer loop
      vertex -4.96399 31.2745 0
      vertex -4.875 31.5484 9.75
      vertex -4.875 31.5484 0
    endloop
  endfacet
  facet normal -0.951056 0.309019 0
    outer loop
      vertex -4.875 31.5484 9.75
      vertex -4.96399 31.2745 0
      vertex -4.96399 31.2745 9.75
    endloop
  endfacet
  facet normal 0.951056 0.309019 0
    outer loop
      vertex 4.96399 31.2745 9.75
      vertex 4.875 31.5484 0
      vertex 4.875 31.5484 9.75
    endloop
  endfacet
  facet normal 0.951056 0.309019 0
    outer loop
      vertex 4.875 31.5484 0
      vertex 4.96399 31.2745 9.75
      vertex 4.96399 31.2745 0
    endloop
  endfacet
  facet normal 0.125334 0.992115 -0
    outer loop
      vertex 0.960329 35.0342 0
      vertex 0.321801 35.1149 9.75
      vertex 0.960329 35.0342 9.75
    endloop
  endfacet
  facet normal 0.125334 0.992115 0
    outer loop
      vertex 0.321801 35.1149 9.75
      vertex 0.960329 35.0342 0
      vertex 0.321801 35.1149 0
    endloop
  endfacet
  facet normal 0.248689 0.968583 -0
    outer loop
      vertex 1.09361 35 0
      vertex 0.960329 35.0342 9.75
      vertex 1.09361 35 9.75
    endloop
  endfacet
  facet normal 0.248689 0.968583 0
    outer loop
      vertex 0.960329 35.0342 9.75
      vertex 1.09361 35 0
      vertex 0.960329 35.0342 0
    endloop
  endfacet
  facet normal 0 1 -0
    outer loop
      vertex 0.321801 35.1149 0
      vertex -0.321801 35.1149 9.75
      vertex 0.321801 35.1149 9.75
    endloop
  endfacet
  facet normal 0 1 0
    outer loop
      vertex -0.321801 35.1149 9.75
      vertex 0.321801 35.1149 0
      vertex -0.321801 35.1149 0
    endloop
  endfacet
  facet normal -0.982287 0.18738 0
    outer loop
      vertex -5.08459 30.6423 0
      vertex -4.96399 31.2745 9.75
      vertex -4.96399 31.2745 0
    endloop
  endfacet
  facet normal -0.982287 0.18738 0
    outer loop
      vertex -4.96399 31.2745 9.75
      vertex -5.08459 30.6423 0
      vertex -5.08459 30.6423 9.75
    endloop
  endfacet
  facet normal -0.998027 0.0627917 0
    outer loop
      vertex -5.125 30 0
      vertex -5.08459 30.6423 9.75
      vertex -5.08459 30.6423 0
    endloop
  endfacet
  facet normal -0.998027 0.0627917 0
    outer loop
      vertex -5.08459 30.6423 9.75
      vertex -5.125 30 0
      vertex -5.125 30 9.75
    endloop
  endfacet
  facet normal -0.998027 -0.0627916 0
    outer loop
      vertex -5.08459 29.3577 0
      vertex -5.125 30 9.75
      vertex -5.125 30 0
    endloop
  endfacet
  facet normal -0.998027 -0.0627916 0
    outer loop
      vertex -5.125 30 9.75
      vertex -5.08459 29.3577 0
      vertex -5.08459 29.3577 9.75
    endloop
  endfacet
  facet normal -0.248689 0.968583 0
    outer loop
      vertex -0.960329 35.0342 0
      vertex -1.09361 35 9.75
      vertex -0.960329 35.0342 9.75
    endloop
  endfacet
  facet normal -0.248689 0.968583 0
    outer loop
      vertex -1.09361 35 9.75
      vertex -0.960329 35.0342 0
      vertex -1.09361 35 0
    endloop
  endfacet
  facet normal 0.998027 -0.0627916 0
    outer loop
      vertex 5.08459 29.3577 9.75
      vertex 5.125 30 0
      vertex 5.125 30 9.75
    endloop
  endfacet
  facet normal 0.998027 -0.0627916 0
    outer loop
      vertex 5.125 30 0
      vertex 5.08459 29.3577 9.75
      vertex 5.08459 29.3577 0
    endloop
  endfacet
  facet normal 0.982287 -0.187381 0
    outer loop
      vertex 4.96399 28.7255 9.75
      vertex 5.08459 29.3577 0
      vertex 5.08459 29.3577 9.75
    endloop
  endfacet
  facet normal 0.982287 -0.187381 0
    outer loop
      vertex 5.08459 29.3577 0
      vertex 4.96399 28.7255 9.75
      vertex 4.96399 28.7255 0
    endloop
  endfacet
  facet normal -0.951057 -0.309017 0
    outer loop
      vertex -4.875 28.4516 0
      vertex -4.96399 28.7255 9.75
      vertex -4.96399 28.7255 0
    endloop
  endfacet
  facet normal -0.951057 -0.309017 0
    outer loop
      vertex -4.96399 28.7255 9.75
      vertex -4.875 28.4516 0
      vertex -4.875 28.4516 9.75
    endloop
  endfacet
  facet normal -0.982287 -0.187381 0
    outer loop
      vertex -4.96399 28.7255 0
      vertex -5.08459 29.3577 9.75
      vertex -5.08459 29.3577 0
    endloop
  endfacet
  facet normal -0.982287 -0.187381 0
    outer loop
      vertex -5.08459 29.3577 9.75
      vertex -4.96399 28.7255 0
      vertex -4.96399 28.7255 9.75
    endloop
  endfacet
  facet normal 0.951057 -0.309017 0
    outer loop
      vertex 4.875 28.4516 9.75
      vertex 4.96399 28.7255 0
      vertex 4.96399 28.7255 9.75
    endloop
  endfacet
  facet normal 0.951057 -0.309017 0
    outer loop
      vertex 4.96399 28.7255 0
      vertex 4.875 28.4516 9.75
      vertex 4.875 28.4516 0
    endloop
  endfacet
  facet normal 0.40614 -0.913811 0
    outer loop
      vertex 7.5 -10 0
      vertex 15 -6.66666 9.75
      vertex 7.5 -10 9.75
    endloop
  endfacet
  facet normal 0.40614 -0.913811 0
    outer loop
      vertex 15 -6.66666 9.75
      vertex 7.5 -10 0
      vertex 15 -6.66666 0
    endloop
  endfacet
  facet normal 0.664363 -0.74741 0
    outer loop
      vertex 15 -6.66666 0
      vertex 22.5 0 9.75
      vertex 15 -6.66666 9.75
    endloop
  endfacet
  facet normal 0.664363 -0.74741 0
    outer loop
      vertex 22.5 0 9.75
      vertex 15 -6.66666 0
      vertex 22.5 0 0
    endloop
  endfacet
  facet normal 0 1 -0
    outer loop
      vertex 22.5 0 0
      vertex 7.5 0 9.75
      vertex 22.5 0 9.75
    endloop
  endfacet
  facet normal 0 1 0
    outer loop
      vertex 7.5 0 9.75
      vertex 22.5 0 0
      vertex 7.5 0 0
    endloop
  endfacet
  facet normal 0 1 -0
    outer loop
      vertex -7.5 0 0
      vertex -22.5 0 9.75
      vertex -7.5 0 9.75
    endloop
  endfacet
  facet normal 0 1 0
    outer loop
      vertex -22.5 0 9.75
      vertex -7.5 0 0
      vertex -22.5 0 0
    endloop
  endfacet
  facet normal -0.664363 -0.74741 0
    outer loop
      vertex -22.5 0 0
      vertex -15 -6.66666 9.75
      vertex -22.5 0 9.75
    endloop
  endfacet
  facet normal -0.664363 -0.74741 -0
    outer loop
      vertex -15 -6.66666 9.75
      vertex -22.5 0 0
      vertex -15 -6.66666 0
    endloop
  endfacet
  facet normal -0.40614 -0.913811 0
    outer loop
      vertex -15 -6.66666 0
      vertex -7.5 -10 9.75
      vertex -15 -6.66666 9.75
    endloop
  endfacet
  facet normal -0.40614 -0.913811 -0
    outer loop
      vertex -7.5 -10 9.75
      vertex -15 -6.66666 0
      vertex -7.5 -10 0
    endloop
  endfacet
  facet normal -0.936329 0.351123 0
    outer loop
      vertex -11.25 -20 0
      vertex -7.5 -10 9.75
      vertex -7.5 -10 0
    endloop
  endfacet
  facet normal -0.936329 0.351123 0
    outer loop
      vertex -7.5 -10 9.75
      vertex -11.25 -20 0
      vertex -11.25 -20 9.75
    endloop
  endfacet
  facet normal 0.509804 -0.860291 0
    outer loop
      vertex -11.25 -20 0
      vertex -5.625 -16.6667 9.75
      vertex -11.25 -20 9.75
    endloop
  endfacet
  facet normal 0.509804 -0.860291 0
    outer loop
      vertex -5.625 -16.6667 9.75
      vertex -11.25 -20 0
      vertex -5.625 -16.6667 0
    endloop
  endfacet
  facet normal -0.509804 -0.860291 0
    outer loop
      vertex -5.625 -16.6667 0
      vertex 0 -20 9.75
      vertex -5.625 -16.6667 9.75
    endloop
  endfacet
  facet normal -0.509804 -0.860291 -0
    outer loop
      vertex 0 -20 9.75
      vertex -5.625 -16.6667 0
      vertex 0 -20 0
    endloop
  endfacet
  facet normal 0.509804 -0.860291 0
    outer loop
      vertex 0 -20 0
      vertex 5.625 -16.6667 9.75
      vertex 0 -20 9.75
    endloop
  endfacet
  facet normal 0.509804 -0.860291 0
    outer loop
      vertex 5.625 -16.6667 9.75
      vertex 0 -20 0
      vertex 5.625 -16.6667 0
    endloop
  endfacet
  facet normal -0.509804 -0.860291 0
    outer loop
      vertex 5.625 -16.6667 0
      vertex 11.25 -20 9.75
      vertex 5.625 -16.6667 9.75
    endloop
  endfacet
  facet normal -0.509804 -0.860291 -0
    outer loop
      vertex 11.25 -20 9.75
      vertex 5.625 -16.6667 0
      vertex 11.25 -20 0
    endloop
  endfacet
  facet normal 0.936329 0.351123 0
    outer loop
      vertex 11.25 -20 9.75
      vertex 7.5 -10 0
      vertex 7.5 -10 9.75
    endloop
  endfacet
  facet normal 0.936329 0.351123 0
    outer loop
      vertex 7.5 -10 0
      vertex 11.25 -20 9.75
      vertex 11.25 -20 0
    endloop
  endfacet
endsolid OpenSCAD_Model
