solid OpenSCAD_Model
  facet normal 0 -1 0
    outer loop
      vertex -15.314 -5.49013 0
      vertex -15 -5.49013 9.75
      vertex -15.314 -5.49013 9.75
    endloop
  endfacet
  facet normal 0 -1 -0
    outer loop
      vertex -15 -5.49013 9.75
      vertex -15.314 -5.49013 0
      vertex -15 -5.49013 0
    endloop
  endfacet
  facet normal 0 0 1
    outer loop
      vertex -15 -0.5 9.75
      vertex -15.314 -5.49013 9.75
      vertex -15 -5.49013 9.75
    endloop
  endfacet
  facet normal 0 0 1
    outer loop
      vertex -15 -0.5 9.75
      vertex -15.9369 -5.41144 9.75
      vertex -15.314 -5.49013 9.75
    endloop
  endfacet
  facet normal 0 0 1
    outer loop
      vertex -15 -0.5 9.75
      vertex -16.5451 -5.25528 9.75
      vertex -15.9369 -5.41144 9.75
    endloop
  endfacet
  facet normal 0 0 1
    outer loop
      vertex -15 -0.5 9.75
      vertex -17.1289 -5.02413 9.75
      vertex -16.5451 -5.25528 9.75
    endloop
  endfacet
  facet normal 0 0 1
    outer loop
      vertex -15 -0.5 9.75
      vertex -17.6791 -4.72164 9.75
      vertex -17.1289 -5.02413 9.75
    endloop
  endfacet
  facet normal 0 0 1
    outer loop
      vertex -15 -0.5 9.75
      vertex -18.1871 -4.35257 9.75
      vertex -17.6791 -4.72164 9.75
    endloop
  endfacet
  facet normal 0 0 1
    outer loop
      vertex -15 -0.5 9.75
      vertex -18.6448 -3.92274 9.75
      vertex -18.1871 -4.35257 9.75
    endloop
  endfacet
  facet normal 0 0 1
    outer loop
      vertex -15 -0.5 9.75
      vertex -19.0451 -3.43893 9.75
      vertex -18.6448 -3.92274 9.75
    endloop
  endfacet
  facet normal 0 0 1
    outer loop
      vertex -15 -0.5 9.75
      vertex -19.3815 -2.90877 9.75
      vertex -19.0451 -3.43893 9.75
    endloop
  endfacet
  facet normal 0 0 1
    outer loop
      vertex -15 -0.5 9.75
      vertex -19.6489 -2.34062 9.75
      vertex -19.3815 -2.90877 9.75
    endloop
  endfacet
  facet normal 0 0 1
    outer loop
      vertex -15 -0.5 9.75
      vertex -19.8429 -1.74345 9.75
      vertex -19.6489 -2.34062 9.75
    endloop
  endfacet
  facet normal 0 0 1
    outer loop
      vertex -15 -0.5 9.75
      vertex -19.9606 -1.12667 9.75
      vertex -19.8429 -1.74345 9.75
    endloop
  endfacet
  facet normal 0 -0 1
    outer loop
      vertex -19.9606 -1.12667 9.75
      vertex -15 -0.5 9.75
      vertex -20 -0.5 9.75
    endloop
  endfacet
  facet normal 0 0 1
    outer loop
      vertex -9.92705 -0.14683 9.75
      vertex -9.5 -0.0452873 9.75
      vertex -9.56214 -0.0531378 9.75
    endloop
  endfacet
  facet normal 0 0 1
    outer loop
      vertex -9.5 -0.0452873 9.75
      vertex -9.92705 -0.14683 9.75
      vertex -9.5 -5.95471 9.75
    endloop
  endfacet
  facet normal -0 0 1
    outer loop
      vertex -9.92705 -5.85317 9.75
      vertex -9.5 -5.95471 9.75
      vertex -9.92705 -0.14683 9.75
    endloop
  endfacet
  facet normal 0 0 1
    outer loop
      vertex -9.5 -5.95471 9.75
      vertex -9.92705 -5.85317 9.75
      vertex -9.56214 -5.94686 9.75
    endloop
  endfacet
  facet normal -0 0 1
    outer loop
      vertex -10.2773 -0.285519 9.75
      vertex -9.92705 -5.85317 9.75
      vertex -9.92705 -0.14683 9.75
    endloop
  endfacet
  facet normal 0 0 1
    outer loop
      vertex -10.2773 -0.285519 9.75
      vertex -10.2773 -5.71448 9.75
      vertex -9.92705 -5.85317 9.75
    endloop
  endfacet
  facet normal 0 0 1
    outer loop
      vertex -10.6529 -0.5 9.75
      vertex -10.2773 -0.285519 9.75
      vertex -10.6075 -0.467016 9.75
    endloop
  endfacet
  facet normal 0 0 1
    outer loop
      vertex -10.2773 -0.285519 9.75
      vertex -10.6529 -0.5 9.75
      vertex -10.2773 -5.71448 9.75
    endloop
  endfacet
  facet normal 0 0 1
    outer loop
      vertex -10.2773 -5.71448 9.75
      vertex -10.6529 -5.5 9.75
      vertex -10.6075 -5.53298 9.75
    endloop
  endfacet
  facet normal 0 0 1
    outer loop
      vertex -10.2773 -5.71448 9.75
      vertex -10.6529 -0.5 9.75
      vertex -10.6529 -5.5 9.75
    endloop
  endfacet
  facet normal -0 0 1
    outer loop
      vertex -15 -0.5 9.75
      vertex -10.6529 -5.5 9.75
      vertex -10.6529 -0.5 9.75
    endloop
  endfacet
  facet normal -0 0 1
    outer loop
      vertex -15 -5.49013 9.75
      vertex -10.6529 -5.5 9.75
      vertex -15 -0.5 9.75
    endloop
  endfacet
  facet normal 0 0 1
    outer loop
      vertex -10.6529 -5.5 9.75
      vertex -15 -5.49013 9.75
      vertex -15 -5.5 9.75
    endloop
  endfacet
  facet normal 0 0 1
    outer loop
      vertex -5.08459 30.6423 9.75
      vertex -4.875 31.5484 9.75
      vertex -4.96399 31.2745 9.75
    endloop
  endfacet
  facet normal 0 0 1
    outer loop
      vertex -4.875 31.5484 9.75
      vertex -5.08459 30.6423 9.75
      vertex -4.875 28.4516 9.75
    endloop
  endfacet
  facet normal -0 0 1
    outer loop
      vertex -5.08459 29.3577 9.75
      vertex -4.875 28.4516 9.75
      vertex -5.08459 30.6423 9.75
    endloop
  endfacet
  facet normal 0 0 1
    outer loop
      vertex -4.875 28.4516 9.75
      vertex -5.08459 29.3577 9.75
      vertex -4.96399 28.7255 9.75
    endloop
  endfacet
  facet normal 0 -0 1
    outer loop
      vertex -5.08459 29.3577 9.75
      vertex -5.08459 30.6423 9.75
      vertex -5.125 30 9.75
    endloop
  endfacet
  facet normal -0 0 1
    outer loop
      vertex 1.09361 35 9.75
      vertex 4.875 31.5484 9.75
      vertex 4.875 35 9.75
    endloop
  endfacet
  facet normal 0 0 1
    outer loop
      vertex 4.875 31.5484 9.75
      vertex 1.09361 35 9.75
      vertex 4.875 28.4516 9.75
    endloop
  endfacet
  facet normal 0 0 1
    outer loop
      vertex 4.875 28.4516 9.75
      vertex -4.875 28.4516 9.75
      vertex 4.875 6 9.75
    endloop
  endfacet
  facet normal 0 0 1
    outer loop
      vertex -7.5 0 9.75
      vertex 4.875 6 9.75
      vertex -4.875 6 9.75
    endloop
  endfacet
  facet normal 0 0 1
    outer loop
      vertex 4.875 6 9.75
      vertex 4.17122 -14.3554 9.75
      vertex 4.84302 -14.4951 9.75
    endloop
  endfacet
  facet normal 0 0 1
    outer loop
      vertex 4.84302 -14.4951 9.75
      vertex 4.17122 -14.3554 9.75
      vertex 4.53155 -14.4557 9.75
    endloop
  endfacet
  facet normal 0 0 1
    outer loop
      vertex 4.53155 -14.4557 9.75
      vertex 4.17122 -14.3554 9.75
      vertex 4.22746 -14.3776 9.75
    endloop
  endfacet
  facet normal 0 0 1
    outer loop
      vertex 4.875 6 9.75
      vertex -7.5 0 9.75
      vertex 4.17122 -14.3554 9.75
    endloop
  endfacet
  facet normal -0 0 1
    outer loop
      vertex -9.5 -5.95471 9.75
      vertex 4.17122 -14.3554 9.75
      vertex -7.5 0 9.75
    endloop
  endfacet
  facet normal 0 -0 1
    outer loop
      vertex -0.22523 -15.4474 9.75
      vertex 4.17122 -14.3554 9.75
      vertex -9.5 -5.95471 9.75
    endloop
  endfacet
  facet normal 0 0 1
    outer loop
      vertex 4.17122 -14.3554 9.75
      vertex 3.92705 -14.7634 9.75
      vertex 4.12892 -14.4453 9.75
    endloop
  endfacet
  facet normal 0 0 1
    outer loop
      vertex 3.92705 -14.7634 9.75
      vertex -0.22523 -15.4474 9.75
      vertex 3.68691 -15.0536 9.75
    endloop
  endfacet
  facet normal 0 0 1
    outer loop
      vertex 3.68691 -15.0536 9.75
      vertex -0.22523 -15.4474 9.75
      vertex 3.41227 -15.3115 9.75
    endloop
  endfacet
  facet normal 0 0 1
    outer loop
      vertex 3.41227 -15.3115 9.75
      vertex -0.22523 -15.4474 9.75
      vertex 3.10748 -15.533 9.75
    endloop
  endfacet
  facet normal 0 0 1
    outer loop
      vertex 3.10748 -15.533 9.75
      vertex -0.22523 -15.4474 9.75
      vertex 2.77734 -15.7145 9.75
    endloop
  endfacet
  facet normal 0 0 1
    outer loop
      vertex 2.77734 -15.7145 9.75
      vertex -0.22523 -15.4474 9.75
      vertex 2.42705 -15.8532 9.75
    endloop
  endfacet
  facet normal 0 0 1
    outer loop
      vertex 4.875 28.4516 9.75
      vertex 1.09361 35 9.75
      vertex -4.875 28.4516 9.75
    endloop
  endfacet
  facet normal 0 0 1
    outer loop
      vertex 0.321801 35.1149 9.75
      vertex 1.09361 35 9.75
      vertex 0.960329 35.0342 9.75
    endloop
  endfacet
  facet normal 0 0 1
    outer loop
      vertex 2.42705 -15.8532 9.75
      vertex -0.22523 -15.4474 9.75
      vertex 2.06214 -15.9469 9.75
    endloop
  endfacet
  facet normal 0 0 1
    outer loop
      vertex 2.06214 -15.9469 9.75
      vertex -0.22523 -15.4474 9.75
      vertex 1.68837 -15.9941 9.75
    endloop
  endfacet
  facet normal 0 0 1
    outer loop
      vertex 1.09361 35 9.75
      vertex 0.321801 35.1149 9.75
      vertex -4.875 28.4516 9.75
    endloop
  endfacet
  facet normal 0 0 1
    outer loop
      vertex 1.68837 -15.9941 9.75
      vertex -0.22523 -15.4474 9.75
      vertex 1.31163 -15.9941 9.75
    endloop
  endfacet
  facet normal 0 0 1
    outer loop
      vertex 0.937856 -15.9469 9.75
      vertex -0.22523 -15.4474 9.75
      vertex 0.572948 -15.8532 9.75
    endloop
  endfacet
  facet normal 0 0 1
    outer loop
      vertex 0.572948 -15.8532 9.75
      vertex -0.22523 -15.4474 9.75
      vertex 0.222662 -15.7145 9.75
    endloop
  endfacet
  facet normal 0 0 1
    outer loop
      vertex 0.222662 -15.7145 9.75
      vertex -0.22523 -15.4474 9.75
      vertex -0.10748 -15.533 9.75
    endloop
  endfacet
  facet normal 0 0 1
    outer loop
      vertex -4.875 28.4516 9.75
      vertex 0.321801 35.1149 9.75
      vertex -0.321801 35.1149 9.75
    endloop
  endfacet
  facet normal 0 0 1
    outer loop
      vertex 1.31163 -15.9941 9.75
      vertex -0.22523 -15.4474 9.75
      vertex 0.937856 -15.9469 9.75
    endloop
  endfacet
  facet normal 0 -0 1
    outer loop
      vertex 3.92705 -14.7634 9.75
      vertex 4.17122 -14.3554 9.75
      vertex -0.22523 -15.4474 9.75
    endloop
  endfacet
  facet normal 0 0 1
    outer loop
      vertex -1.09361 35 9.75
      vertex -0.321801 35.1149 9.75
      vertex -0.960329 35.0342 9.75
    endloop
  endfacet
  facet normal 0 0 1
    outer loop
      vertex -0.321801 35.1149 9.75
      vertex -1.09361 35 9.75
      vertex -4.875 28.4516 9.75
    endloop
  endfacet
  facet normal 0 -0 1
    outer loop
      vertex -4.77477 -15.4474 9.75
      vertex -0.22523 -15.4474 9.75
      vertex -9.5 -5.95471 9.75
    endloop
  endfacet
  facet normal 0 -0 1
    outer loop
      vertex -0.587728 -15.8115 9.75
      vertex -0.22523 -15.4474 9.75
      vertex -4.77477 -15.4474 9.75
    endloop
  endfacet
  facet normal 0 0 1
    outer loop
      vertex -0.22523 -15.4474 9.75
      vertex -0.587728 -15.8115 9.75
      vertex -0.313093 -15.5536 9.75
    endloop
  endfacet
  facet normal 0 0 1
    outer loop
      vertex -0.587728 -15.8115 9.75
      vertex -4.77477 -15.4474 9.75
      vertex -0.892519 -16.033 9.75
    endloop
  endfacet
  facet normal 0 0 1
    outer loop
      vertex -0.892519 -16.033 9.75
      vertex -4.77477 -15.4474 9.75
      vertex -1.22266 -16.2145 9.75
    endloop
  endfacet
  facet normal 0 0 1
    outer loop
      vertex -1.22266 -16.2145 9.75
      vertex -4.77477 -15.4474 9.75
      vertex -1.57295 -16.3532 9.75
    endloop
  endfacet
  facet normal 0 0 1
    outer loop
      vertex -1.57295 -16.3532 9.75
      vertex -4.77477 -15.4474 9.75
      vertex -1.93786 -16.4469 9.75
    endloop
  endfacet
  facet normal 0 0 1
    outer loop
      vertex -1.93786 -16.4469 9.75
      vertex -4.77477 -15.4474 9.75
      vertex -2.31163 -16.4941 9.75
    endloop
  endfacet
  facet normal 0 0 1
    outer loop
      vertex -2.68837 -16.4941 9.75
      vertex -4.77477 -15.4474 9.75
      vertex -3.06214 -16.4469 9.75
    endloop
  endfacet
  facet normal 0 0 1
    outer loop
      vertex -3.06214 -16.4469 9.75
      vertex -4.77477 -15.4474 9.75
      vertex -3.42705 -16.3532 9.75
    endloop
  endfacet
  facet normal 0 0 1
    outer loop
      vertex -3.42705 -16.3532 9.75
      vertex -4.77477 -15.4474 9.75
      vertex -3.77734 -16.2145 9.75
    endloop
  endfacet
  facet normal 0 0 1
    outer loop
      vertex -3.77734 -16.2145 9.75
      vertex -4.77477 -15.4474 9.75
      vertex -4.10748 -16.033 9.75
    endloop
  endfacet
  facet normal 0 0 1
    outer loop
      vertex -4.875 31.5484 9.75
      vertex -1.09361 35 9.75
      vertex -4.875 35 9.75
    endloop
  endfacet
  facet normal 0 0 1
    outer loop
      vertex -4.875 28.4516 9.75
      vertex -1.09361 35 9.75
      vertex -4.875 31.5484 9.75
    endloop
  endfacet
  facet normal 0 0 1
    outer loop
      vertex 4.875 6 9.75
      vertex -4.875 28.4516 9.75
      vertex -4.875 6 9.75
    endloop
  endfacet
  facet normal 0 0 1
    outer loop
      vertex -4.10748 -16.033 9.75
      vertex -4.77477 -15.4474 9.75
      vertex -4.41227 -15.8115 9.75
    endloop
  endfacet
  facet normal 0 0 1
    outer loop
      vertex -4.41227 -15.8115 9.75
      vertex -4.77477 -15.4474 9.75
      vertex -4.68691 -15.5536 9.75
    endloop
  endfacet
  facet normal 0 0 1
    outer loop
      vertex -2.31163 -16.4941 9.75
      vertex -4.77477 -15.4474 9.75
      vertex -2.68837 -16.4941 9.75
    endloop
  endfacet
  facet normal -0 0 1
    outer loop
      vertex -9.5 -13 9.75
      vertex -4.77477 -15.4474 9.75
      vertex -9.5 -5.95471 9.75
    endloop
  endfacet
  facet normal 0 -0 1
    outer loop
      vertex -5.57295 -15.8532 9.75
      vertex -4.77477 -15.4474 9.75
      vertex -9.5 -13 9.75
    endloop
  endfacet
  facet normal 0 0 1
    outer loop
      vertex -4.77477 -15.4474 9.75
      vertex -5.22266 -15.7145 9.75
      vertex -4.89252 -15.533 9.75
    endloop
  endfacet
  facet normal 0 0 1
    outer loop
      vertex -4.77477 -15.4474 9.75
      vertex -5.57295 -15.8532 9.75
      vertex -5.22266 -15.7145 9.75
    endloop
  endfacet
  facet normal 0 0 1
    outer loop
      vertex -5.57295 -15.8532 9.75
      vertex -9.5 -13 9.75
      vertex -5.93786 -15.9469 9.75
    endloop
  endfacet
  facet normal 0 0 1
    outer loop
      vertex -5.93786 -15.9469 9.75
      vertex -9.5 -13 9.75
      vertex -6.31163 -15.9941 9.75
    endloop
  endfacet
  facet normal 0 0 1
    outer loop
      vertex -7.5 0 9.75
      vertex -4.875 6 9.75
      vertex -7.5 6 9.75
    endloop
  endfacet
  facet normal 0 0 1
    outer loop
      vertex -6.31163 -15.9941 9.75
      vertex -9.5 -13 9.75
      vertex -6.68837 -15.9941 9.75
    endloop
  endfacet
  facet normal 0 0 1
    outer loop
      vertex -6.68837 -15.9941 9.75
      vertex -9.5 -13 9.75
      vertex -7.06214 -15.9469 9.75
    endloop
  endfacet
  facet normal 0 0 1
    outer loop
      vertex -7.06214 -15.9469 9.75
      vertex -9.5 -13 9.75
      vertex -7.42705 -15.8532 9.75
    endloop
  endfacet
  facet normal 0 0 1
    outer loop
      vertex -7.42705 -15.8532 9.75
      vertex -9.5 -13 9.75
      vertex -7.77734 -15.7145 9.75
    endloop
  endfacet
  facet normal 0 0 1
    outer loop
      vertex -7.77734 -15.7145 9.75
      vertex -9.5 -13 9.75
      vertex -8.10748 -15.533 9.75
    endloop
  endfacet
  facet normal 0 0 1
    outer loop
      vertex -8.10748 -15.533 9.75
      vertex -9.5 -13 9.75
      vertex -8.41227 -15.3115 9.75
    endloop
  endfacet
  facet normal 0 0 1
    outer loop
      vertex -8.41227 -15.3115 9.75
      vertex -9.5 -13 9.75
      vertex -8.68691 -15.0536 9.75
    endloop
  endfacet
  facet normal 0 0 1
    outer loop
      vertex -8.68691 -15.0536 9.75
      vertex -9.5 -13 9.75
      vertex -8.92705 -14.7634 9.75
    endloop
  endfacet
  facet normal 0 0 1
    outer loop
      vertex -9.12892 -14.4453 9.75
      vertex -9.5 -13 9.75
      vertex -9.28933 -14.1044 9.75
    endloop
  endfacet
  facet normal 0 0 1
    outer loop
      vertex -9.28933 -14.1044 9.75
      vertex -9.5 -13 9.75
      vertex -9.40575 -13.7461 9.75
    endloop
  endfacet
  facet normal 0 0 1
    outer loop
      vertex -9.5 -0.0452873 9.75
      vertex -7.5 0 9.75
      vertex -9.5 0 9.75
    endloop
  endfacet
  facet normal 0 0 1
    outer loop
      vertex -9.5 -5.95471 9.75
      vertex -7.5 0 9.75
      vertex -9.5 -0.0452873 9.75
    endloop
  endfacet
  facet normal 0 0 1
    outer loop
      vertex -8.92705 -14.7634 9.75
      vertex -9.5 -13 9.75
      vertex -9.12892 -14.4453 9.75
    endloop
  endfacet
  facet normal 0 0 1
    outer loop
      vertex -9.40575 -13.7461 9.75
      vertex -9.5 -13 9.75
      vertex -9.47634 -13.376 9.75
    endloop
  endfacet
  facet normal 0 0 1
    outer loop
      vertex 5.08459 30.6423 9.75
      vertex 5.08459 29.3577 9.75
      vertex 5.125 30 9.75
    endloop
  endfacet
  facet normal 0 0 1
    outer loop
      vertex 4.875 31.5484 9.75
      vertex 5.08459 30.6423 9.75
      vertex 4.96399 31.2745 9.75
    endloop
  endfacet
  facet normal 0 0 1
    outer loop
      vertex 5.08459 30.6423 9.75
      vertex 4.875 31.5484 9.75
      vertex 5.08459 29.3577 9.75
    endloop
  endfacet
  facet normal 0 0 1
    outer loop
      vertex 4.875 28.4516 9.75
      vertex 5.08459 29.3577 9.75
      vertex 4.875 31.5484 9.75
    endloop
  endfacet
  facet normal 0 0 1
    outer loop
      vertex 5.08459 29.3577 9.75
      vertex 4.875 28.4516 9.75
      vertex 4.96399 28.7255 9.75
    endloop
  endfacet
  facet normal -0 0 1
    outer loop
      vertex 4.875 6 9.75
      vertex 7.5 -12 9.75
      vertex 7.5 6 9.75
    endloop
  endfacet
  facet normal 0 0 1
    outer loop
      vertex 4.84302 -14.4951 9.75
      vertex 7.5 -12 9.75
      vertex 4.875 6 9.75
    endloop
  endfacet
  facet normal 0 0 1
    outer loop
      vertex 7.5 -12 9.75
      vertex 4.84302 -14.4951 9.75
      vertex 7.48029 -12.3133 9.75
    endloop
  endfacet
  facet normal 0 0 1
    outer loop
      vertex 7.48029 -12.3133 9.75
      vertex 4.84302 -14.4951 9.75
      vertex 7.42146 -12.6217 9.75
    endloop
  endfacet
  facet normal 0 0 1
    outer loop
      vertex 7.42146 -12.6217 9.75
      vertex 4.84302 -14.4951 9.75
      vertex 7.32444 -12.9203 9.75
    endloop
  endfacet
  facet normal 0 0 1
    outer loop
      vertex 7.32444 -12.9203 9.75
      vertex 4.84302 -14.4951 9.75
      vertex 7.19077 -13.2044 9.75
    endloop
  endfacet
  facet normal 0 0 1
    outer loop
      vertex 7.19077 -13.2044 9.75
      vertex 4.84302 -14.4951 9.75
      vertex 7.02254 -13.4695 9.75
    endloop
  endfacet
  facet normal 0 0 1
    outer loop
      vertex 7.02254 -13.4695 9.75
      vertex 4.84302 -14.4951 9.75
      vertex 6.82242 -13.7114 9.75
    endloop
  endfacet
  facet normal 0 0 1
    outer loop
      vertex 6.82242 -13.7114 9.75
      vertex 4.84302 -14.4951 9.75
      vertex 6.59356 -13.9263 9.75
    endloop
  endfacet
  facet normal 0 0 1
    outer loop
      vertex 6.59356 -13.9263 9.75
      vertex 4.84302 -14.4951 9.75
      vertex 6.33957 -14.1108 9.75
    endloop
  endfacet
  facet normal 0 0 1
    outer loop
      vertex 6.33957 -14.1108 9.75
      vertex 4.84302 -14.4951 9.75
      vertex 6.06445 -14.2621 9.75
    endloop
  endfacet
  facet normal 0 0 1
    outer loop
      vertex 6.06445 -14.2621 9.75
      vertex 4.84302 -14.4951 9.75
      vertex 5.77254 -14.3776 9.75
    endloop
  endfacet
  facet normal 0 0 1
    outer loop
      vertex 5.77254 -14.3776 9.75
      vertex 4.84302 -14.4951 9.75
      vertex 5.46845 -14.4557 9.75
    endloop
  endfacet
  facet normal 0 0 1
    outer loop
      vertex 5.46845 -14.4557 9.75
      vertex 4.84302 -14.4951 9.75
      vertex 5.15698 -14.4951 9.75
    endloop
  endfacet
  facet normal -0.368127 -0.929776 0
    outer loop
      vertex -17.1289 -5.02413 0
      vertex -16.5451 -5.25528 9.75
      vertex -17.1289 -5.02413 9.75
    endloop
  endfacet
  facet normal -0.368127 -0.929776 -0
    outer loop
      vertex -16.5451 -5.25528 9.75
      vertex -17.1289 -5.02413 0
      vertex -16.5451 -5.25528 0
    endloop
  endfacet
  facet normal 0 0 -1
    outer loop
      vertex -9.92705 -5.85317 0
      vertex -9.5 -5.95471 0
      vertex -9.56214 -5.94686 0
    endloop
  endfacet
  facet normal 0 0 -1
    outer loop
      vertex -9.5 -5.95471 0
      vertex -9.92705 -5.85317 0
      vertex -9.5 -0.0452873 0
    endloop
  endfacet
  facet normal 0 0 -1
    outer loop
      vertex -9.92705 -0.14683 0
      vertex -9.5 -0.0452873 0
      vertex -9.92705 -5.85317 0
    endloop
  endfacet
  facet normal 0 0 -1
    outer loop
      vertex -9.5 -0.0452873 0
      vertex -9.92705 -0.14683 0
      vertex -9.56214 -0.0531378 0
    endloop
  endfacet
  facet normal 0 0 -1
    outer loop
      vertex -10.2773 -5.71448 0
      vertex -9.92705 -0.14683 0
      vertex -9.92705 -5.85317 0
    endloop
  endfacet
  facet normal 0 0 -1
    outer loop
      vertex -10.2773 -5.71448 0
      vertex -10.2773 -0.285519 0
      vertex -9.92705 -0.14683 0
    endloop
  endfacet
  facet normal 0 0 -1
    outer loop
      vertex -10.6529 -5.5 0
      vertex -10.2773 -5.71448 0
      vertex -10.6075 -5.53298 0
    endloop
  endfacet
  facet normal 0 0 -1
    outer loop
      vertex -10.2773 -5.71448 0
      vertex -10.6529 -5.5 0
      vertex -10.2773 -0.285519 0
    endloop
  endfacet
  facet normal 0 0 -1
    outer loop
      vertex -10.6529 -0.5 0
      vertex -10.2773 -0.285519 0
      vertex -10.6529 -5.5 0
    endloop
  endfacet
  facet normal 0 0 -1
    outer loop
      vertex -10.2773 -0.285519 0
      vertex -10.6529 -0.5 0
      vertex -10.6075 -0.467016 0
    endloop
  endfacet
  facet normal 0 0 -1
    outer loop
      vertex -15 -5.49013 0
      vertex -10.6529 -5.5 0
      vertex -15 -5.5 0
    endloop
  endfacet
  facet normal 0 0 -1
    outer loop
      vertex -10.6529 -5.5 0
      vertex -15 -5.49013 0
      vertex -10.6529 -0.5 0
    endloop
  endfacet
  facet normal 0 0 -1
    outer loop
      vertex -15 -5.49013 0
      vertex -15 -0.5 0
      vertex -10.6529 -0.5 0
    endloop
  endfacet
  facet normal 0 0 -1
    outer loop
      vertex -15.314 -5.49013 0
      vertex -15 -0.5 0
      vertex -15 -5.49013 0
    endloop
  endfacet
  facet normal 0 0 -1
    outer loop
      vertex -15.9369 -5.41144 0
      vertex -15 -0.5 0
      vertex -15.314 -5.49013 0
    endloop
  endfacet
  facet normal 0 0 -1
    outer loop
      vertex -16.5451 -5.25528 0
      vertex -15 -0.5 0
      vertex -15.9369 -5.41144 0
    endloop
  endfacet
  facet normal 0 0 -1
    outer loop
      vertex -17.1289 -5.02413 0
      vertex -15 -0.5 0
      vertex -16.5451 -5.25528 0
    endloop
  endfacet
  facet normal 0 0 -1
    outer loop
      vertex -17.6791 -4.72164 0
      vertex -15 -0.5 0
      vertex -17.1289 -5.02413 0
    endloop
  endfacet
  facet normal 0 0 -1
    outer loop
      vertex -18.1871 -4.35257 0
      vertex -15 -0.5 0
      vertex -17.6791 -4.72164 0
    endloop
  endfacet
  facet normal 0 0 -1
    outer loop
      vertex -18.6448 -3.92274 0
      vertex -15 -0.5 0
      vertex -18.1871 -4.35257 0
    endloop
  endfacet
  facet normal 0 0 -1
    outer loop
      vertex -19.0451 -3.43893 0
      vertex -15 -0.5 0
      vertex -18.6448 -3.92274 0
    endloop
  endfacet
  facet normal 0 0 -1
    outer loop
      vertex -19.3815 -2.90877 0
      vertex -15 -0.5 0
      vertex -19.0451 -3.43893 0
    endloop
  endfacet
  facet normal 0 0 -1
    outer loop
      vertex -19.6489 -2.34062 0
      vertex -15 -0.5 0
      vertex -19.3815 -2.90877 0
    endloop
  endfacet
  facet normal 0 0 -1
    outer loop
      vertex -19.8429 -1.74345 0
      vertex -15 -0.5 0
      vertex -19.6489 -2.34062 0
    endloop
  endfacet
  facet normal 0 0 -1
    outer loop
      vertex -19.9606 -1.12667 0
      vertex -15 -0.5 0
      vertex -19.8429 -1.74345 0
    endloop
  endfacet
  facet normal -0 0 -1
    outer loop
      vertex -15 -0.5 0
      vertex -19.9606 -1.12667 0
      vertex -20 -0.5 0
    endloop
  endfacet
  facet normal 0 0 -1
    outer loop
      vertex -9.5 -13 0
      vertex -4.77477 -15.4474 0
      vertex -7.77734 -15.7145 0
    endloop
  endfacet
  facet normal 0 0 -1
    outer loop
      vertex -9.5 -13 0
      vertex -7.77734 -15.7145 0
      vertex -8.10748 -15.533 0
    endloop
  endfacet
  facet normal 0 0 -1
    outer loop
      vertex -9.5 -13 0
      vertex -8.10748 -15.533 0
      vertex -8.41227 -15.3115 0
    endloop
  endfacet
  facet normal 0 0 -1
    outer loop
      vertex -9.5 -13 0
      vertex -8.41227 -15.3115 0
      vertex -8.68691 -15.0536 0
    endloop
  endfacet
  facet normal 0 0 -1
    outer loop
      vertex -9.5 -13 0
      vertex -8.68691 -15.0536 0
      vertex -8.92705 -14.7634 0
    endloop
  endfacet
  facet normal 0 0 -1
    outer loop
      vertex -9.5 -13 0
      vertex -8.92705 -14.7634 0
      vertex -9.12892 -14.4453 0
    endloop
  endfacet
  facet normal 0 0 -1
    outer loop
      vertex -9.5 -13 0
      vertex -9.12892 -14.4453 0
      vertex -9.28933 -14.1044 0
    endloop
  endfacet
  facet normal 0 0 -1
    outer loop
      vertex -9.5 -13 0
      vertex -9.28933 -14.1044 0
      vertex -9.40575 -13.7461 0
    endloop
  endfacet
  facet normal 0 0 -1
    outer loop
      vertex -9.5 -13 0
      vertex -9.40575 -13.7461 0
      vertex -9.47634 -13.376 0
    endloop
  endfacet
  facet normal 0 0 -1
    outer loop
      vertex -4.77477 -15.4474 0
      vertex -9.5 -13 0
      vertex -9.5 -5.95471 0
    endloop
  endfacet
  facet normal 0 0 -1
    outer loop
      vertex -4.77477 -15.4474 0
      vertex -9.5 -5.95471 0
      vertex -7.5 0 0
    endloop
  endfacet
  facet normal 0 0 -1
    outer loop
      vertex -9.5 -0.0452873 0
      vertex -7.5 0 0
      vertex -9.5 -5.95471 0
    endloop
  endfacet
  facet normal -0 0 -1
    outer loop
      vertex -7.5 0 0
      vertex -9.5 -0.0452873 0
      vertex -9.5 0 0
    endloop
  endfacet
  facet normal 0 0 -1
    outer loop
      vertex -5.08459 29.3577 0
      vertex -4.875 28.4516 0
      vertex -4.96399 28.7255 0
    endloop
  endfacet
  facet normal 0 0 -1
    outer loop
      vertex -4.875 28.4516 0
      vertex -5.08459 29.3577 0
      vertex -4.875 31.5484 0
    endloop
  endfacet
  facet normal 0 0 -1
    outer loop
      vertex -5.08459 30.6423 0
      vertex -4.875 31.5484 0
      vertex -5.08459 29.3577 0
    endloop
  endfacet
  facet normal 0 0 -1
    outer loop
      vertex -4.875 31.5484 0
      vertex -5.08459 30.6423 0
      vertex -4.96399 31.2745 0
    endloop
  endfacet
  facet normal 0 -0 -1
    outer loop
      vertex -5.08459 30.6423 0
      vertex -5.08459 29.3577 0
      vertex -5.125 30 0
    endloop
  endfacet
  facet normal 0 0 -1
    outer loop
      vertex -5.22266 -15.7145 0
      vertex -4.77477 -15.4474 0
      vertex -4.89252 -15.533 0
    endloop
  endfacet
  facet normal 0 0 -1
    outer loop
      vertex -4.77477 -15.4474 0
      vertex -5.22266 -15.7145 0
      vertex -7.42705 -15.8532 0
    endloop
  endfacet
  facet normal 0 0 -1
    outer loop
      vertex -7.42705 -15.8532 0
      vertex -5.22266 -15.7145 0
      vertex -5.57295 -15.8532 0
    endloop
  endfacet
  facet normal 0 0 -1
    outer loop
      vertex -7.42705 -15.8532 0
      vertex -5.57295 -15.8532 0
      vertex -5.93786 -15.9469 0
    endloop
  endfacet
  facet normal 0 0 -1
    outer loop
      vertex -7.42705 -15.8532 0
      vertex -5.93786 -15.9469 0
      vertex -6.31163 -15.9941 0
    endloop
  endfacet
  facet normal 0 0 -1
    outer loop
      vertex -7.42705 -15.8532 0
      vertex -6.31163 -15.9941 0
      vertex -6.68837 -15.9941 0
    endloop
  endfacet
  facet normal 0 0 -1
    outer loop
      vertex -7.42705 -15.8532 0
      vertex -6.68837 -15.9941 0
      vertex -7.06214 -15.9469 0
    endloop
  endfacet
  facet normal 0 0 -1
    outer loop
      vertex -7.77734 -15.7145 0
      vertex -4.77477 -15.4474 0
      vertex -7.42705 -15.8532 0
    endloop
  endfacet
  facet normal 0 0 -1
    outer loop
      vertex -4.77477 -15.4474 0
      vertex -7.5 0 0
      vertex -4.875 6 0
    endloop
  endfacet
  facet normal -0 0 -1
    outer loop
      vertex -4.875 6 0
      vertex -7.5 0 0
      vertex -7.5 6 0
    endloop
  endfacet
  facet normal 0 0 -1
    outer loop
      vertex 4.17122 -14.3554 0
      vertex 7.5 -12 0
      vertex 7.48029 -12.3133 0
    endloop
  endfacet
  facet normal 0 0 -1
    outer loop
      vertex 4.17122 -14.3554 0
      vertex 7.48029 -12.3133 0
      vertex 7.42146 -12.6217 0
    endloop
  endfacet
  facet normal 0 0 -1
    outer loop
      vertex 4.17122 -14.3554 0
      vertex 7.42146 -12.6217 0
      vertex 7.32444 -12.9203 0
    endloop
  endfacet
  facet normal 0 0 -1
    outer loop
      vertex 4.17122 -14.3554 0
      vertex 7.32444 -12.9203 0
      vertex 7.19077 -13.2044 0
    endloop
  endfacet
  facet normal 0 0 -1
    outer loop
      vertex 4.17122 -14.3554 0
      vertex 7.19077 -13.2044 0
      vertex 7.02254 -13.4695 0
    endloop
  endfacet
  facet normal 0 0 -1
    outer loop
      vertex 4.17122 -14.3554 0
      vertex 7.02254 -13.4695 0
      vertex 6.82242 -13.7114 0
    endloop
  endfacet
  facet normal 0 0 -1
    outer loop
      vertex 4.17122 -14.3554 0
      vertex 6.82242 -13.7114 0
      vertex 6.59356 -13.9263 0
    endloop
  endfacet
  facet normal 0 0 -1
    outer loop
      vertex 4.17122 -14.3554 0
      vertex 6.59356 -13.9263 0
      vertex 6.33957 -14.1108 0
    endloop
  endfacet
  facet normal 0 0 -1
    outer loop
      vertex 4.17122 -14.3554 0
      vertex 6.33957 -14.1108 0
      vertex 6.06445 -14.2621 0
    endloop
  endfacet
  facet normal 0 0 -1
    outer loop
      vertex 4.17122 -14.3554 0
      vertex 6.06445 -14.2621 0
      vertex 5.77254 -14.3776 0
    endloop
  endfacet
  facet normal 0 0 -1
    outer loop
      vertex 4.17122 -14.3554 0
      vertex 5.77254 -14.3776 0
      vertex 5.46845 -14.4557 0
    endloop
  endfacet
  facet normal 0 0 -1
    outer loop
      vertex 4.17122 -14.3554 0
      vertex 5.46845 -14.4557 0
      vertex 5.15698 -14.4951 0
    endloop
  endfacet
  facet normal 0 0 -1
    outer loop
      vertex 7.5 -12 0
      vertex 4.875 6 0
      vertex 7.5 6 0
    endloop
  endfacet
  facet normal 0 0 -1
    outer loop
      vertex -4.875 28.4516 0
      vertex 4.875 28.4516 0
      vertex 4.875 6 0
    endloop
  endfacet
  facet normal 0 0 -1
    outer loop
      vertex 4.875 28.4516 0
      vertex -4.875 28.4516 0
      vertex 4.875 31.5484 0
    endloop
  endfacet
  facet normal 0 0 -1
    outer loop
      vertex 4.17122 -14.3554 0
      vertex 5.15698 -14.4951 0
      vertex 4.84302 -14.4951 0
    endloop
  endfacet
  facet normal 0 0 -1
    outer loop
      vertex -4.875 6 0
      vertex 7.5 -12 0
      vertex 4.17122 -14.3554 0
    endloop
  endfacet
  facet normal 0 0 -1
    outer loop
      vertex 4.17122 -14.3554 0
      vertex 4.84302 -14.4951 0
      vertex 4.53155 -14.4557 0
    endloop
  endfacet
  facet normal 0 0 -1
    outer loop
      vertex 4.17122 -14.3554 0
      vertex 4.53155 -14.4557 0
      vertex 4.22746 -14.3776 0
    endloop
  endfacet
  facet normal 0 0 -1
    outer loop
      vertex 7.5 -12 0
      vertex -4.875 6 0
      vertex 4.875 6 0
    endloop
  endfacet
  facet normal 0 0 -1
    outer loop
      vertex 3.92705 -14.7634 0
      vertex 4.17122 -14.3554 0
      vertex 4.12892 -14.4453 0
    endloop
  endfacet
  facet normal 0 0 -1
    outer loop
      vertex 4.17122 -14.3554 0
      vertex 3.92705 -14.7634 0
      vertex -0.22523 -15.4474 0
    endloop
  endfacet
  facet normal 0 0 -1
    outer loop
      vertex -0.22523 -15.4474 0
      vertex 3.92705 -14.7634 0
      vertex 3.68691 -15.0536 0
    endloop
  endfacet
  facet normal 0 0 -1
    outer loop
      vertex -0.22523 -15.4474 0
      vertex 3.68691 -15.0536 0
      vertex 3.41227 -15.3115 0
    endloop
  endfacet
  facet normal 0 0 -1
    outer loop
      vertex -0.22523 -15.4474 0
      vertex 3.41227 -15.3115 0
      vertex 3.10748 -15.533 0
    endloop
  endfacet
  facet normal 0 0 -1
    outer loop
      vertex -0.22523 -15.4474 0
      vertex 3.10748 -15.533 0
      vertex 2.77734 -15.7145 0
    endloop
  endfacet
  facet normal 0 0 -1
    outer loop
      vertex -0.22523 -15.4474 0
      vertex 2.77734 -15.7145 0
      vertex 2.42705 -15.8532 0
    endloop
  endfacet
  facet normal 0 0 -1
    outer loop
      vertex -0.22523 -15.4474 0
      vertex 2.42705 -15.8532 0
      vertex 2.06214 -15.9469 0
    endloop
  endfacet
  facet normal 0 0 -1
    outer loop
      vertex -0.22523 -15.4474 0
      vertex 2.06214 -15.9469 0
      vertex 1.68837 -15.9941 0
    endloop
  endfacet
  facet normal 0 0 -1
    outer loop
      vertex -0.22523 -15.4474 0
      vertex 1.68837 -15.9941 0
      vertex 1.31163 -15.9941 0
    endloop
  endfacet
  facet normal 0 0 -1
    outer loop
      vertex -4.875 28.4516 0
      vertex 4.875 6 0
      vertex -4.875 6 0
    endloop
  endfacet
  facet normal 0 -0 -1
    outer loop
      vertex 1.09361 35 0
      vertex 4.875 31.5484 0
      vertex -4.875 28.4516 0
    endloop
  endfacet
  facet normal 0 0 -1
    outer loop
      vertex -0.22523 -15.4474 0
      vertex 1.31163 -15.9941 0
      vertex 0.937856 -15.9469 0
    endloop
  endfacet
  facet normal 0 0 -1
    outer loop
      vertex -0.22523 -15.4474 0
      vertex 0.937856 -15.9469 0
      vertex 0.572948 -15.8532 0
    endloop
  endfacet
  facet normal 0 0 -1
    outer loop
      vertex 4.875 31.5484 0
      vertex 1.09361 35 0
      vertex 4.875 35 0
    endloop
  endfacet
  facet normal 0 0 -1
    outer loop
      vertex -0.22523 -15.4474 0
      vertex 0.572948 -15.8532 0
      vertex 0.222662 -15.7145 0
    endloop
  endfacet
  facet normal 0 0 -1
    outer loop
      vertex -0.22523 -15.4474 0
      vertex 0.222662 -15.7145 0
      vertex -0.10748 -15.533 0
    endloop
  endfacet
  facet normal -0 0 -1
    outer loop
      vertex 4.17122 -14.3554 0
      vertex -0.22523 -15.4474 0
      vertex -4.875 6 0
    endloop
  endfacet
  facet normal 0 0 -1
    outer loop
      vertex -0.587728 -15.8115 0
      vertex -0.22523 -15.4474 0
      vertex -0.313093 -15.5536 0
    endloop
  endfacet
  facet normal 0 -0 -1
    outer loop
      vertex 0.321801 35.1149 0
      vertex 1.09361 35 0
      vertex -4.875 28.4516 0
    endloop
  endfacet
  facet normal -0 0 -1
    outer loop
      vertex -0.22523 -15.4474 0
      vertex -0.587728 -15.8115 0
      vertex -4.77477 -15.4474 0
    endloop
  endfacet
  facet normal 0 0 -1
    outer loop
      vertex -4.77477 -15.4474 0
      vertex -0.587728 -15.8115 0
      vertex -0.892519 -16.033 0
    endloop
  endfacet
  facet normal 0 0 -1
    outer loop
      vertex 1.09361 35 0
      vertex 0.321801 35.1149 0
      vertex 0.960329 35.0342 0
    endloop
  endfacet
  facet normal -0 0 -1
    outer loop
      vertex 0.321801 35.1149 0
      vertex -4.875 28.4516 0
      vertex -0.321801 35.1149 0
    endloop
  endfacet
  facet normal 0 0 -1
    outer loop
      vertex -4.77477 -15.4474 0
      vertex -0.892519 -16.033 0
      vertex -1.22266 -16.2145 0
    endloop
  endfacet
  facet normal 0 0 -1
    outer loop
      vertex -4.77477 -15.4474 0
      vertex -1.22266 -16.2145 0
      vertex -1.57295 -16.3532 0
    endloop
  endfacet
  facet normal 0 0 -1
    outer loop
      vertex -4.77477 -15.4474 0
      vertex -1.57295 -16.3532 0
      vertex -1.93786 -16.4469 0
    endloop
  endfacet
  facet normal 0 0 -1
    outer loop
      vertex -4.77477 -15.4474 0
      vertex -1.93786 -16.4469 0
      vertex -2.31163 -16.4941 0
    endloop
  endfacet
  facet normal 0 0 -1
    outer loop
      vertex -4.77477 -15.4474 0
      vertex -2.31163 -16.4941 0
      vertex -2.68837 -16.4941 0
    endloop
  endfacet
  facet normal 0 0 -1
    outer loop
      vertex -4.77477 -15.4474 0
      vertex -2.68837 -16.4941 0
      vertex -3.06214 -16.4469 0
    endloop
  endfacet
  facet normal 0 0 -1
    outer loop
      vertex -4.77477 -15.4474 0
      vertex -3.06214 -16.4469 0
      vertex -3.42705 -16.3532 0
    endloop
  endfacet
  facet normal 0 0 -1
    outer loop
      vertex -4.77477 -15.4474 0
      vertex -3.42705 -16.3532 0
      vertex -3.77734 -16.2145 0
    endloop
  endfacet
  facet normal 0 0 -1
    outer loop
      vertex -4.77477 -15.4474 0
      vertex -3.77734 -16.2145 0
      vertex -4.10748 -16.033 0
    endloop
  endfacet
  facet normal 0 0 -1
    outer loop
      vertex -4.77477 -15.4474 0
      vertex -4.10748 -16.033 0
      vertex -4.41227 -15.8115 0
    endloop
  endfacet
  facet normal 0 0 -1
    outer loop
      vertex -4.77477 -15.4474 0
      vertex -4.41227 -15.8115 0
      vertex -4.68691 -15.5536 0
    endloop
  endfacet
  facet normal 0 0 -1
    outer loop
      vertex -0.22523 -15.4474 0
      vertex -4.77477 -15.4474 0
      vertex -4.875 6 0
    endloop
  endfacet
  facet normal 0 -0 -1
    outer loop
      vertex -1.09361 35 0
      vertex -0.321801 35.1149 0
      vertex -4.875 28.4516 0
    endloop
  endfacet
  facet normal 0 0 -1
    outer loop
      vertex -0.321801 35.1149 0
      vertex -1.09361 35 0
      vertex -0.960329 35.0342 0
    endloop
  endfacet
  facet normal 0 0 -1
    outer loop
      vertex -4.875 31.5484 0
      vertex -1.09361 35 0
      vertex -4.875 28.4516 0
    endloop
  endfacet
  facet normal -0 0 -1
    outer loop
      vertex -1.09361 35 0
      vertex -4.875 31.5484 0
      vertex -4.875 35 0
    endloop
  endfacet
  facet normal 0 0 -1
    outer loop
      vertex 5.08459 29.3577 0
      vertex 5.08459 30.6423 0
      vertex 5.125 30 0
    endloop
  endfacet
  facet normal 0 0 -1
    outer loop
      vertex 4.875 28.4516 0
      vertex 5.08459 29.3577 0
      vertex 4.96399 28.7255 0
    endloop
  endfacet
  facet normal -0 0 -1
    outer loop
      vertex 5.08459 29.3577 0
      vertex 4.875 28.4516 0
      vertex 5.08459 30.6423 0
    endloop
  endfacet
  facet normal 0 0 -1
    outer loop
      vertex 4.875 31.5484 0
      vertex 5.08459 30.6423 0
      vertex 4.875 28.4516 0
    endloop
  endfacet
  facet normal 0 0 -1
    outer loop
      vertex 5.08459 30.6423 0
      vertex 4.875 31.5484 0
      vertex 4.96399 31.2745 0
    endloop
  endfacet
  facet normal -0.248689 -0.968583 0
    outer loop
      vertex -16.5451 -5.25528 0
      vertex -15.9369 -5.41144 9.75
      vertex -16.5451 -5.25528 9.75
    endloop
  endfacet
  facet normal -0.248689 -0.968583 -0
    outer loop
      vertex -15.9369 -5.41144 9.75
      vertex -16.5451 -5.25528 0
      vertex -15.9369 -5.41144 0
    endloop
  endfacet
  facet normal -0.770513 -0.637424 0
    outer loop
      vertex -18.6448 -3.92274 0
      vertex -19.0451 -3.43893 9.75
      vertex -19.0451 -3.43893 0
    endloop
  endfacet
  facet normal -0.770513 -0.637424 0
    outer loop
      vertex -19.0451 -3.43893 9.75
      vertex -18.6448 -3.92274 0
      vertex -18.6448 -3.92274 9.75
    endloop
  endfacet
  facet normal -0.951057 -0.309016 0
    outer loop
      vertex -19.6489 -2.34062 0
      vertex -19.8429 -1.74345 9.75
      vertex -19.8429 -1.74345 0
    endloop
  endfacet
  facet normal -0.951057 -0.309016 0
    outer loop
      vertex -19.8429 -1.74345 9.75
      vertex -19.6489 -2.34062 0
      vertex -19.6489 -2.34062 9.75
    endloop
  endfacet
  facet normal -0.125333 -0.992115 0
    outer loop
      vertex -15.9369 -5.41144 0
      vertex -15.314 -5.49013 9.75
      vertex -15.9369 -5.41144 9.75
    endloop
  endfacet
  facet normal -0.125333 -0.992115 -0
    outer loop
      vertex -15.314 -5.49013 9.75
      vertex -15.9369 -5.41144 0
      vertex -15.314 -5.49013 0
    endloop
  endfacet
  facet normal -0.844329 -0.535825 0
    outer loop
      vertex -19.0451 -3.43893 0
      vertex -19.3815 -2.90877 9.75
      vertex -19.3815 -2.90877 0
    endloop
  endfacet
  facet normal -0.844329 -0.535825 0
    outer loop
      vertex -19.3815 -2.90877 9.75
      vertex -19.0451 -3.43893 0
      vertex -19.0451 -3.43893 9.75
    endloop
  endfacet
  facet normal -0.904827 -0.425779 0
    outer loop
      vertex -19.3815 -2.90877 0
      vertex -19.6489 -2.34062 9.75
      vertex -19.6489 -2.34062 0
    endloop
  endfacet
  facet normal -0.904827 -0.425779 0
    outer loop
      vertex -19.6489 -2.34062 9.75
      vertex -19.3815 -2.90877 0
      vertex -19.3815 -2.90877 9.75
    endloop
  endfacet
  facet normal -0.982287 -0.187383 0
    outer loop
      vertex -19.8429 -1.74345 0
      vertex -19.9606 -1.12667 9.75
      vertex -19.9606 -1.12667 0
    endloop
  endfacet
  facet normal -0.982287 -0.187383 0
    outer loop
      vertex -19.9606 -1.12667 9.75
      vertex -19.8429 -1.74345 0
      vertex -19.8429 -1.74345 9.75
    endloop
  endfacet
  facet normal -0.998027 -0.062791 0
    outer loop
      vertex -19.9606 -1.12667 0
      vertex -20 -0.5 9.75
      vertex -20 -0.5 0
    endloop
  endfacet
  facet normal -0.998027 -0.062791 0
    outer loop
      vertex -20 -0.5 9.75
      vertex -19.9606 -1.12667 0
      vertex -19.9606 -1.12667 9.75
    endloop
  endfacet
  facet normal -0.481753 -0.876307 0
    outer loop
      vertex -17.6791 -4.72164 0
      vertex -17.1289 -5.02413 9.75
      vertex -17.6791 -4.72164 9.75
    endloop
  endfacet
  facet normal -0.481753 -0.876307 -0
    outer loop
      vertex -17.1289 -5.02413 9.75
      vertex -17.6791 -4.72164 0
      vertex -17.1289 -5.02413 0
    endloop
  endfacet
  facet normal -0.587786 -0.809016 0
    outer loop
      vertex -18.1871 -4.35257 0
      vertex -17.6791 -4.72164 9.75
      vertex -18.1871 -4.35257 9.75
    endloop
  endfacet
  facet normal -0.587786 -0.809016 -0
    outer loop
      vertex -17.6791 -4.72164 9.75
      vertex -18.1871 -4.35257 0
      vertex -17.6791 -4.72164 0
    endloop
  endfacet
  facet normal -0.684545 -0.72897 0
    outer loop
      vertex -18.6448 -3.92274 0
      vertex -18.1871 -4.35257 9.75
      vertex -18.6448 -3.92274 9.75
    endloop
  endfacet
  facet normal -0.684545 -0.72897 -0
    outer loop
      vertex -18.1871 -4.35257 9.75
      vertex -18.6448 -3.92274 0
      vertex -18.1871 -4.35257 0
    endloop
  endfacet
  facet normal 0 1 -0
    outer loop
      vertex -15 -0.5 0
      vertex -20 -0.5 9.75
      vertex -15 -0.5 9.75
    endloop
  endfacet
  facet normal 0 1 0
    outer loop
      vertex -20 -0.5 9.75
      vertex -15 -0.5 0
      vertex -20 -0.5 0
    endloop
  endfacet
  facet normal 0 1 -0
    outer loop
      vertex -10.6529 -0.5 0
      vertex -15 -0.5 9.75
      vertex -10.6529 -0.5 9.75
    endloop
  endfacet
  facet normal 0 1 0
    outer loop
      vertex -15 -0.5 9.75
      vertex -10.6529 -0.5 0
      vertex -15 -0.5 0
    endloop
  endfacet
  facet normal -1 0 0
    outer loop
      vertex -4.875 31.5484 0
      vertex -4.875 35 9.75
      vertex -4.875 35 0
    endloop
  endfacet
  facet normal -1 -0 0
    outer loop
      vertex -4.875 35 9.75
      vertex -4.875 31.5484 0
      vertex -4.875 31.5484 9.75
    endloop
  endfacet
  facet normal -1 0 0
    outer loop
      vertex -4.875 6 0
      vertex -4.875 28.4516 9.75
      vertex -4.875 28.4516 0
    endloop
  endfacet
  facet normal -1 -0 0
    outer loop
      vertex -4.875 28.4516 9.75
      vertex -4.875 6 0
      vertex -4.875 6 9.75
    endloop
  endfacet
  facet normal 1 -0 0
    outer loop
      vertex 4.875 31.5484 9.75
      vertex 4.875 35 0
      vertex 4.875 35 9.75
    endloop
  endfacet
  facet normal 1 0 0
    outer loop
      vertex 4.875 35 0
      vertex 4.875 31.5484 9.75
      vertex 4.875 31.5484 0
    endloop
  endfacet
  facet normal 1 -0 0
    outer loop
      vertex 4.875 6 9.75
      vertex 4.875 28.4516 0
      vertex 4.875 28.4516 9.75
    endloop
  endfacet
  facet normal 1 0 0
    outer loop
      vertex 4.875 28.4516 0
      vertex 4.875 6 9.75
      vertex 4.875 6 0
    endloop
  endfacet
  facet normal 0 1 -0
    outer loop
      vertex 4.875 35 0
      vertex 1.09361 35 9.75
      vertex 4.875 35 9.75
    endloop
  endfacet
  facet normal 0 1 0
    outer loop
      vertex 1.09361 35 9.75
      vertex 4.875 35 0
      vertex 1.09361 35 0
    endloop
  endfacet
  facet normal 0 1 -0
    outer loop
      vertex -1.09361 35 0
      vertex -4.875 35 9.75
      vertex -1.09361 35 9.75
    endloop
  endfacet
  facet normal 0 1 0
    outer loop
      vertex -4.875 35 9.75
      vertex -1.09361 35 0
      vertex -4.875 35 0
    endloop
  endfacet
  facet normal -1 0 0
    outer loop
      vertex -7.5 0 0
      vertex -7.5 6 9.75
      vertex -7.5 6 0
    endloop
  endfacet
  facet normal -1 -0 0
    outer loop
      vertex -7.5 6 9.75
      vertex -7.5 0 0
      vertex -7.5 0 9.75
    endloop
  endfacet
  facet normal 1 -0 0
    outer loop
      vertex 7.5 -12 9.75
      vertex 7.5 6 0
      vertex 7.5 6 9.75
    endloop
  endfacet
  facet normal 1 0 0
    outer loop
      vertex 7.5 6 0
      vertex 7.5 -12 9.75
      vertex 7.5 -12 0
    endloop
  endfacet
  facet normal 0 1 -0
    outer loop
      vertex 7.5 6 0
      vertex 4.875 6 9.75
      vertex 7.5 6 9.75
    endloop
  endfacet
  facet normal 0 1 0
    outer loop
      vertex 4.875 6 9.75
      vertex 7.5 6 0
      vertex 4.875 6 0
    endloop
  endfacet
  facet normal 0 1 -0
    outer loop
      vertex -4.875 6 0
      vertex -7.5 6 9.75
      vertex -4.875 6 9.75
    endloop
  endfacet
  facet normal 0 1 0
    outer loop
      vertex -7.5 6 9.75
      vertex -4.875 6 0
      vertex -7.5 6 0
    endloop
  endfacet
  facet normal -1 0 0
    outer loop
      vertex -15 -5.5 0
      vertex -15 -5.49013 9.75
      vertex -15 -5.49013 0
    endloop
  endfacet
  facet normal -1 -0 0
    outer loop
      vertex -15 -5.49013 9.75
      vertex -15 -5.5 0
      vertex -15 -5.5 9.75
    endloop
  endfacet
  facet normal 0 -1 0
    outer loop
      vertex -15 -5.5 0
      vertex -10.6529 -5.5 9.75
      vertex -15 -5.5 9.75
    endloop
  endfacet
  facet normal 0 -1 -0
    outer loop
      vertex -10.6529 -5.5 9.75
      vertex -15 -5.5 0
      vertex -10.6529 -5.5 0
    endloop
  endfacet
  facet normal -1 0 0
    outer loop
      vertex -9.5 -13 0
      vertex -9.5 -5.95471 9.75
      vertex -9.5 -5.95471 0
    endloop
  endfacet
  facet normal -1 -0 0
    outer loop
      vertex -9.5 -5.95471 9.75
      vertex -9.5 -13 0
      vertex -9.5 -13 9.75
    endloop
  endfacet
  facet normal -1 0 0
    outer loop
      vertex -9.5 -0.0452873 0
      vertex -9.5 0 9.75
      vertex -9.5 0 0
    endloop
  endfacet
  facet normal -1 -0 0
    outer loop
      vertex -9.5 0 9.75
      vertex -9.5 -0.0452873 0
      vertex -9.5 -0.0452873 9.75
    endloop
  endfacet
  facet normal 0 1 -0
    outer loop
      vertex -7.5 0 0
      vertex -9.5 0 9.75
      vertex -7.5 0 9.75
    endloop
  endfacet
  facet normal 0 1 0
    outer loop
      vertex -9.5 0 9.75
      vertex -7.5 0 0
      vertex -9.5 0 0
    endloop
  endfacet
  facet normal -0.368126 0.929776 0
    outer loop
      vertex -9.92705 -0.14683 0
      vertex -10.2773 -0.285519 9.75
      vertex -9.92705 -0.14683 9.75
    endloop
  endfacet
  facet normal -0.368126 0.929776 0
    outer loop
      vertex -10.2773 -0.285519 9.75
      vertex -9.92705 -0.14683 0
      vertex -10.2773 -0.285519 0
    endloop
  endfacet
  facet normal -0.248689 0.968583 0
    outer loop
      vertex -9.56214 -0.0531378 0
      vertex -9.92705 -0.14683 9.75
      vertex -9.56214 -0.0531378 9.75
    endloop
  endfacet
  facet normal -0.248689 0.968583 0
    outer loop
      vertex -9.92705 -0.14683 9.75
      vertex -9.56214 -0.0531378 0
      vertex -9.92705 -0.14683 0
    endloop
  endfacet
  facet normal -0.481754 0.876307 0
    outer loop
      vertex -10.2773 -0.285519 0
      vertex -10.6075 -0.467016 9.75
      vertex -10.2773 -0.285519 9.75
    endloop
  endfacet
  facet normal -0.481754 0.876307 0
    outer loop
      vertex -10.6075 -0.467016 9.75
      vertex -10.2773 -0.285519 0
      vertex -10.6075 -0.467016 0
    endloop
  endfacet
  facet normal -0.587782 0.80902 0
    outer loop
      vertex -10.6075 -0.467016 0
      vertex -10.6529 -0.5 9.75
      vertex -10.6075 -0.467016 9.75
    endloop
  endfacet
  facet normal -0.587782 0.80902 0
    outer loop
      vertex -10.6529 -0.5 9.75
      vertex -10.6075 -0.467016 0
      vertex -10.6529 -0.5 0
    endloop
  endfacet
  facet normal -0.125333 0.992115 0
    outer loop
      vertex -9.5 -0.0452873 0
      vertex -9.56214 -0.0531378 9.75
      vertex -9.5 -0.0452873 9.75
    endloop
  endfacet
  facet normal -0.125333 0.992115 0
    outer loop
      vertex -9.56214 -0.0531378 9.75
      vertex -9.5 -0.0452873 0
      vertex -9.56214 -0.0531378 0
    endloop
  endfacet
  facet normal -0.368126 -0.929776 0
    outer loop
      vertex -10.2773 -5.71448 0
      vertex -9.92705 -5.85317 9.75
      vertex -10.2773 -5.71448 9.75
    endloop
  endfacet
  facet normal -0.368126 -0.929776 -0
    outer loop
      vertex -9.92705 -5.85317 9.75
      vertex -10.2773 -5.71448 0
      vertex -9.92705 -5.85317 0
    endloop
  endfacet
  facet normal -0.587787 -0.809016 0
    outer loop
      vertex -10.6529 -5.5 0
      vertex -10.6075 -5.53298 9.75
      vertex -10.6529 -5.5 9.75
    endloop
  endfacet
  facet normal -0.587787 -0.809016 -0
    outer loop
      vertex -10.6075 -5.53298 9.75
      vertex -10.6529 -5.5 0
      vertex -10.6075 -5.53298 0
    endloop
  endfacet
  facet normal -0.248689 -0.968583 0
    outer loop
      vertex -9.92705 -5.85317 0
      vertex -9.56214 -5.94686 9.75
      vertex -9.92705 -5.85317 9.75
    endloop
  endfacet
  facet normal -0.248689 -0.968583 -0
    outer loop
      vertex -9.56214 -5.94686 9.75
      vertex -9.92705 -5.85317 0
      vertex -9.56214 -5.94686 0
    endloop
  endfacet
  facet normal -0.481754 -0.876307 0
    outer loop
      vertex -10.6075 -5.53298 0
      vertex -10.2773 -5.71448 9.75
      vertex -10.6075 -5.53298 9.75
    endloop
  endfacet
  facet normal -0.481754 -0.876307 -0
    outer loop
      vertex -10.2773 -5.71448 9.75
      vertex -10.6075 -5.53298 0
      vertex -10.2773 -5.71448 0
    endloop
  endfacet
  facet normal -0.125335 -0.992114 0
    outer loop
      vertex -9.56214 -5.94686 0
      vertex -9.5 -5.95471 9.75
      vertex -9.56214 -5.94686 9.75
    endloop
  endfacet
  facet normal -0.125335 -0.992114 -0
    outer loop
      vertex -9.5 -5.95471 9.75
      vertex -9.56214 -5.94686 0
      vertex -9.5 -5.95471 0
    endloop
  endfacet
  facet normal 0 -1 0
    outer loop
      vertex -6.68837 -15.9941 0
      vertex -6.31163 -15.9941 9.75
      vertex -6.68837 -15.9941 9.75
    endloop
  endfacet
  facet normal 0 -1 -0
    outer loop
      vertex -6.31163 -15.9941 9.75
      vertex -6.68837 -15.9941 0
      vertex -6.31163 -15.9941 0
    endloop
  endfacet
  facet normal 0.368126 -0.929776 0
    outer loop
      vertex -5.57295 -15.8532 0
      vertex -5.22266 -15.7145 9.75
      vertex -5.57295 -15.8532 9.75
    endloop
  endfacet
  facet normal 0.368126 -0.929776 0
    outer loop
      vertex -5.22266 -15.7145 9.75
      vertex -5.57295 -15.8532 0
      vertex -5.22266 -15.7145 0
    endloop
  endfacet
  facet normal -0.904828 -0.425778 0
    outer loop
      vertex -9.12892 -14.4453 0
      vertex -9.28933 -14.1044 9.75
      vertex -9.28933 -14.1044 0
    endloop
  endfacet
  facet normal -0.904828 -0.425778 0
    outer loop
      vertex -9.28933 -14.1044 9.75
      vertex -9.12892 -14.4453 0
      vertex -9.12892 -14.4453 9.75
    endloop
  endfacet
  facet normal 0.481754 -0.876307 0
    outer loop
      vertex -5.22266 -15.7145 0
      vertex -4.89252 -15.533 9.75
      vertex -5.22266 -15.7145 9.75
    endloop
  endfacet
  facet normal 0.481754 -0.876307 0
    outer loop
      vertex -4.89252 -15.533 9.75
      vertex -5.22266 -15.7145 0
      vertex -4.89252 -15.533 0
    endloop
  endfacet
  facet normal 0.587784 -0.809018 0
    outer loop
      vertex -4.89252 -15.533 0
      vertex -4.77477 -15.4474 9.75
      vertex -4.89252 -15.533 9.75
    endloop
  endfacet
  facet normal 0.587784 -0.809018 0
    outer loop
      vertex -4.77477 -15.4474 9.75
      vertex -4.89252 -15.533 0
      vertex -4.77477 -15.4474 0
    endloop
  endfacet
  facet normal -0.368126 -0.929776 0
    outer loop
      vertex -7.77734 -15.7145 0
      vertex -7.42705 -15.8532 9.75
      vertex -7.77734 -15.7145 9.75
    endloop
  endfacet
  facet normal -0.368126 -0.929776 -0
    outer loop
      vertex -7.42705 -15.8532 9.75
      vertex -7.77734 -15.7145 0
      vertex -7.42705 -15.8532 0
    endloop
  endfacet
  facet normal -0.684548 -0.728968 0
    outer loop
      vertex -8.68691 -15.0536 0
      vertex -8.41227 -15.3115 9.75
      vertex -8.68691 -15.0536 9.75
    endloop
  endfacet
  facet normal -0.684548 -0.728968 -0
    outer loop
      vertex -8.41227 -15.3115 9.75
      vertex -8.68691 -15.0536 0
      vertex -8.41227 -15.3115 0
    endloop
  endfacet
  facet normal -0.951056 -0.309019 0
    outer loop
      vertex -9.28933 -14.1044 0
      vertex -9.40575 -13.7461 9.75
      vertex -9.40575 -13.7461 0
    endloop
  endfacet
  facet normal -0.951056 -0.309019 0
    outer loop
      vertex -9.40575 -13.7461 9.75
      vertex -9.28933 -14.1044 0
      vertex -9.28933 -14.1044 9.75
    endloop
  endfacet
  facet normal -0.125333 -0.992115 0
    outer loop
      vertex -7.06214 -15.9469 0
      vertex -6.68837 -15.9941 9.75
      vertex -7.06214 -15.9469 9.75
    endloop
  endfacet
  facet normal -0.125333 -0.992115 -0
    outer loop
      vertex -6.68837 -15.9941 9.75
      vertex -7.06214 -15.9469 0
      vertex -6.68837 -15.9941 0
    endloop
  endfacet
  facet normal -0.587784 -0.809018 0
    outer loop
      vertex -8.41227 -15.3115 0
      vertex -8.10748 -15.533 9.75
      vertex -8.41227 -15.3115 9.75
    endloop
  endfacet
  facet normal -0.587784 -0.809018 -0
    outer loop
      vertex -8.10748 -15.533 9.75
      vertex -8.41227 -15.3115 0
      vertex -8.10748 -15.533 0
    endloop
  endfacet
  facet normal -0.248689 -0.968583 0
    outer loop
      vertex -7.42705 -15.8532 0
      vertex -7.06214 -15.9469 9.75
      vertex -7.42705 -15.8532 9.75
    endloop
  endfacet
  facet normal -0.248689 -0.968583 -0
    outer loop
      vertex -7.06214 -15.9469 9.75
      vertex -7.42705 -15.8532 0
      vertex -7.06214 -15.9469 0
    endloop
  endfacet
  facet normal -0.844328 -0.535827 0
    outer loop
      vertex -8.92705 -14.7634 0
      vertex -9.12892 -14.4453 9.75
      vertex -9.12892 -14.4453 0
    endloop
  endfacet
  facet normal -0.844328 -0.535827 0
    outer loop
      vertex -9.12892 -14.4453 9.75
      vertex -8.92705 -14.7634 0
      vertex -8.92705 -14.7634 9.75
    endloop
  endfacet
  facet normal -0.982288 -0.18738 0
    outer loop
      vertex -9.40575 -13.7461 0
      vertex -9.47634 -13.376 9.75
      vertex -9.47634 -13.376 0
    endloop
  endfacet
  facet normal -0.982288 -0.18738 0
    outer loop
      vertex -9.47634 -13.376 9.75
      vertex -9.40575 -13.7461 0
      vertex -9.40575 -13.7461 9.75
    endloop
  endfacet
  facet normal -0.998027 -0.0627931 0
    outer loop
      vertex -9.47634 -13.376 0
      vertex -9.5 -13 9.75
      vertex -9.5 -13 0
    endloop
  endfacet
  facet normal -0.998027 -0.0627931 0
    outer loop
      vertex -9.5 -13 9.75
      vertex -9.47634 -13.376 0
      vertex -9.47634 -13.376 9.75
    endloop
  endfacet
  facet normal 0.248689 -0.968583 0
    outer loop
      vertex -5.93786 -15.9469 0
      vertex -5.57295 -15.8532 9.75
      vertex -5.93786 -15.9469 9.75
    endloop
  endfacet
  facet normal 0.248689 -0.968583 0
    outer loop
      vertex -5.57295 -15.8532 9.75
      vertex -5.93786 -15.9469 0
      vertex -5.57295 -15.8532 0
    endloop
  endfacet
  facet normal 0.125333 -0.992115 0
    outer loop
      vertex -6.31163 -15.9941 0
      vertex -5.93786 -15.9469 9.75
      vertex -6.31163 -15.9941 9.75
    endloop
  endfacet
  facet normal 0.125333 -0.992115 0
    outer loop
      vertex -5.93786 -15.9469 9.75
      vertex -6.31163 -15.9941 0
      vertex -5.93786 -15.9469 0
    endloop
  endfacet
  facet normal -0.481754 -0.876307 0
    outer loop
      vertex -8.10748 -15.533 0
      vertex -7.77734 -15.7145 9.75
      vertex -8.10748 -15.533 9.75
    endloop
  endfacet
  facet normal -0.481754 -0.876307 -0
    outer loop
      vertex -7.77734 -15.7145 9.75
      vertex -8.10748 -15.533 0
      vertex -7.77734 -15.7145 0
    endloop
  endfacet
  facet normal -0.770513 -0.637424 0
    outer loop
      vertex -8.68691 -15.0536 0
      vertex -8.92705 -14.7634 9.75
      vertex -8.92705 -14.7634 0
    endloop
  endfacet
  facet normal -0.770513 -0.637424 0
    outer loop
      vertex -8.92705 -14.7634 9.75
      vertex -8.68691 -15.0536 0
      vertex -8.68691 -15.0536 9.75
    endloop
  endfacet
  facet normal 0 -1 0
    outer loop
      vertex -2.68837 -16.4941 0
      vertex -2.31163 -16.4941 9.75
      vertex -2.68837 -16.4941 9.75
    endloop
  endfacet
  facet normal 0 -1 -0
    outer loop
      vertex -2.31163 -16.4941 9.75
      vertex -2.68837 -16.4941 0
      vertex -2.31163 -16.4941 0
    endloop
  endfacet
  facet normal 0.368122 -0.929777 0
    outer loop
      vertex -1.57295 -16.3532 0
      vertex -1.22266 -16.2145 9.75
      vertex -1.57295 -16.3532 9.75
    endloop
  endfacet
  facet normal 0.368122 -0.929777 0
    outer loop
      vertex -1.22266 -16.2145 9.75
      vertex -1.57295 -16.3532 0
      vertex -1.22266 -16.2145 0
    endloop
  endfacet
  facet normal 0.587782 -0.809019 0
    outer loop
      vertex -0.892519 -16.033 0
      vertex -0.587728 -15.8115 9.75
      vertex -0.892519 -16.033 9.75
    endloop
  endfacet
  facet normal 0.587782 -0.809019 0
    outer loop
      vertex -0.587728 -15.8115 9.75
      vertex -0.892519 -16.033 0
      vertex -0.587728 -15.8115 0
    endloop
  endfacet
  facet normal 0.481757 -0.876305 0
    outer loop
      vertex -1.22266 -16.2145 0
      vertex -0.892519 -16.033 9.75
      vertex -1.22266 -16.2145 9.75
    endloop
  endfacet
  facet normal 0.481757 -0.876305 0
    outer loop
      vertex -0.892519 -16.033 9.75
      vertex -1.22266 -16.2145 0
      vertex -0.892519 -16.033 0
    endloop
  endfacet
  facet normal -0.368122 -0.929777 0
    outer loop
      vertex -3.77734 -16.2145 0
      vertex -3.42705 -16.3532 9.75
      vertex -3.77734 -16.2145 9.75
    endloop
  endfacet
  facet normal -0.368122 -0.929777 -0
    outer loop
      vertex -3.42705 -16.3532 9.75
      vertex -3.77734 -16.2145 0
      vertex -3.42705 -16.3532 0
    endloop
  endfacet
  facet normal -0.684548 -0.728968 0
    outer loop
      vertex -4.68691 -15.5536 0
      vertex -4.41227 -15.8115 9.75
      vertex -4.68691 -15.5536 9.75
    endloop
  endfacet
  facet normal -0.684548 -0.728968 -0
    outer loop
      vertex -4.41227 -15.8115 9.75
      vertex -4.68691 -15.5536 0
      vertex -4.41227 -15.8115 0
    endloop
  endfacet
  facet normal 0.125333 -0.992115 0
    outer loop
      vertex -2.31163 -16.4941 0
      vertex -1.93786 -16.4469 9.75
      vertex -2.31163 -16.4941 9.75
    endloop
  endfacet
  facet normal 0.125333 -0.992115 0
    outer loop
      vertex -1.93786 -16.4469 9.75
      vertex -2.31163 -16.4941 0
      vertex -1.93786 -16.4469 0
    endloop
  endfacet
  facet normal 0.684548 -0.728968 0
    outer loop
      vertex -0.587728 -15.8115 0
      vertex -0.313093 -15.5536 9.75
      vertex -0.587728 -15.8115 9.75
    endloop
  endfacet
  facet normal 0.684548 -0.728968 0
    outer loop
      vertex -0.313093 -15.5536 9.75
      vertex -0.587728 -15.8115 0
      vertex -0.313093 -15.5536 0
    endloop
  endfacet
  facet normal -0.587782 -0.809019 0
    outer loop
      vertex -4.41227 -15.8115 0
      vertex -4.10748 -16.033 9.75
      vertex -4.41227 -15.8115 9.75
    endloop
  endfacet
  facet normal -0.587782 -0.809019 -0
    outer loop
      vertex -4.10748 -16.033 9.75
      vertex -4.41227 -15.8115 0
      vertex -4.10748 -16.033 0
    endloop
  endfacet
  facet normal -0.248691 -0.968583 0
    outer loop
      vertex -3.42705 -16.3532 0
      vertex -3.06214 -16.4469 9.75
      vertex -3.42705 -16.3532 9.75
    endloop
  endfacet
  facet normal -0.248691 -0.968583 -0
    outer loop
      vertex -3.06214 -16.4469 9.75
      vertex -3.42705 -16.3532 0
      vertex -3.06214 -16.4469 0
    endloop
  endfacet
  facet normal 0.770513 -0.637424 0
    outer loop
      vertex -0.313093 -15.5536 9.75
      vertex -0.22523 -15.4474 0
      vertex -0.22523 -15.4474 9.75
    endloop
  endfacet
  facet normal 0.770513 -0.637424 0
    outer loop
      vertex -0.22523 -15.4474 0
      vertex -0.313093 -15.5536 9.75
      vertex -0.313093 -15.5536 0
    endloop
  endfacet
  facet normal 0.248691 -0.968583 0
    outer loop
      vertex -1.93786 -16.4469 0
      vertex -1.57295 -16.3532 9.75
      vertex -1.93786 -16.4469 9.75
    endloop
  endfacet
  facet normal 0.248691 -0.968583 0
    outer loop
      vertex -1.57295 -16.3532 9.75
      vertex -1.93786 -16.4469 0
      vertex -1.57295 -16.3532 0
    endloop
  endfacet
  facet normal -0.481757 -0.876305 0
    outer loop
      vertex -4.10748 -16.033 0
      vertex -3.77734 -16.2145 9.75
      vertex -4.10748 -16.033 9.75
    endloop
  endfacet
  facet normal -0.481757 -0.876305 -0
    outer loop
      vertex -3.77734 -16.2145 9.75
      vertex -4.10748 -16.033 0
      vertex -3.77734 -16.2145 0
    endloop
  endfacet
  facet normal -0.125333 -0.992115 0
    outer loop
      vertex -3.06214 -16.4469 0
      vertex -2.68837 -16.4941 9.75
      vertex -3.06214 -16.4469 9.75
    endloop
  endfacet
  facet normal -0.125333 -0.992115 -0
    outer loop
      vertex -2.68837 -16.4941 9.75
      vertex -3.06214 -16.4469 0
      vertex -2.68837 -16.4941 0
    endloop
  endfacet
  facet normal -0.770513 -0.637425 0
    outer loop
      vertex -4.68691 -15.5536 0
      vertex -4.77477 -15.4474 9.75
      vertex -4.77477 -15.4474 0
    endloop
  endfacet
  facet normal -0.770513 -0.637425 0
    outer loop
      vertex -4.77477 -15.4474 9.75
      vertex -4.68691 -15.5536 0
      vertex -4.68691 -15.5536 9.75
    endloop
  endfacet
  facet normal 0 -1 0
    outer loop
      vertex 1.31163 -15.9941 0
      vertex 1.68837 -15.9941 9.75
      vertex 1.31163 -15.9941 9.75
    endloop
  endfacet
  facet normal 0 -1 -0
    outer loop
      vertex 1.68837 -15.9941 9.75
      vertex 1.31163 -15.9941 0
      vertex 1.68837 -15.9941 0
    endloop
  endfacet
  facet normal 0.368126 -0.929776 0
    outer loop
      vertex 2.42705 -15.8532 0
      vertex 2.77734 -15.7145 9.75
      vertex 2.42705 -15.8532 9.75
    endloop
  endfacet
  facet normal 0.368126 -0.929776 0
    outer loop
      vertex 2.77734 -15.7145 9.75
      vertex 2.42705 -15.8532 0
      vertex 2.77734 -15.7145 0
    endloop
  endfacet
  facet normal 0.844328 -0.535827 0
    outer loop
      vertex 3.92705 -14.7634 9.75
      vertex 4.12892 -14.4453 0
      vertex 4.12892 -14.4453 9.75
    endloop
  endfacet
  facet normal 0.844328 -0.535827 0
    outer loop
      vertex 4.12892 -14.4453 0
      vertex 3.92705 -14.7634 9.75
      vertex 3.92705 -14.7634 0
    endloop
  endfacet
  facet normal 0.587784 -0.809018 0
    outer loop
      vertex 3.10748 -15.533 0
      vertex 3.41227 -15.3115 9.75
      vertex 3.10748 -15.533 9.75
    endloop
  endfacet
  facet normal 0.587784 -0.809018 0
    outer loop
      vertex 3.41227 -15.3115 9.75
      vertex 3.10748 -15.533 0
      vertex 3.41227 -15.3115 0
    endloop
  endfacet
  facet normal 0.481754 -0.876307 0
    outer loop
      vertex 2.77734 -15.7145 0
      vertex 3.10748 -15.533 9.75
      vertex 2.77734 -15.7145 9.75
    endloop
  endfacet
  facet normal 0.481754 -0.876307 0
    outer loop
      vertex 3.10748 -15.533 9.75
      vertex 2.77734 -15.7145 0
      vertex 3.10748 -15.533 0
    endloop
  endfacet
  facet normal 0.904829 -0.425775 0
    outer loop
      vertex 4.12892 -14.4453 9.75
      vertex 4.17122 -14.3554 0
      vertex 4.17122 -14.3554 9.75
    endloop
  endfacet
  facet normal 0.904829 -0.425775 0
    outer loop
      vertex 4.17122 -14.3554 0
      vertex 4.12892 -14.4453 9.75
      vertex 4.12892 -14.4453 0
    endloop
  endfacet
  facet normal -0.368126 -0.929776 0
    outer loop
      vertex 0.222662 -15.7145 0
      vertex 0.572948 -15.8532 9.75
      vertex 0.222662 -15.7145 9.75
    endloop
  endfacet
  facet normal -0.368126 -0.929776 -0
    outer loop
      vertex 0.572948 -15.8532 9.75
      vertex 0.222662 -15.7145 0
      vertex 0.572948 -15.8532 0
    endloop
  endfacet
  facet normal 0.125333 -0.992115 0
    outer loop
      vertex 1.68837 -15.9941 0
      vertex 2.06214 -15.9469 9.75
      vertex 1.68837 -15.9941 9.75
    endloop
  endfacet
  facet normal 0.125333 -0.992115 0
    outer loop
      vertex 2.06214 -15.9469 9.75
      vertex 1.68837 -15.9941 0
      vertex 2.06214 -15.9469 0
    endloop
  endfacet
  facet normal 0.684548 -0.728968 0
    outer loop
      vertex 3.41227 -15.3115 0
      vertex 3.68691 -15.0536 9.75
      vertex 3.41227 -15.3115 9.75
    endloop
  endfacet
  facet normal 0.684548 -0.728968 0
    outer loop
      vertex 3.68691 -15.0536 9.75
      vertex 3.41227 -15.3115 0
      vertex 3.68691 -15.0536 0
    endloop
  endfacet
  facet normal -0.587784 -0.809018 0
    outer loop
      vertex -0.22523 -15.4474 0
      vertex -0.10748 -15.533 9.75
      vertex -0.22523 -15.4474 9.75
    endloop
  endfacet
  facet normal -0.587784 -0.809018 -0
    outer loop
      vertex -0.10748 -15.533 9.75
      vertex -0.22523 -15.4474 0
      vertex -0.10748 -15.533 0
    endloop
  endfacet
  facet normal -0.248689 -0.968583 0
    outer loop
      vertex 0.572948 -15.8532 0
      vertex 0.937856 -15.9469 9.75
      vertex 0.572948 -15.8532 9.75
    endloop
  endfacet
  facet normal -0.248689 -0.968583 -0
    outer loop
      vertex 0.937856 -15.9469 9.75
      vertex 0.572948 -15.8532 0
      vertex 0.937856 -15.9469 0
    endloop
  endfacet
  facet normal 0.770513 -0.637424 0
    outer loop
      vertex 3.68691 -15.0536 9.75
      vertex 3.92705 -14.7634 0
      vertex 3.92705 -14.7634 9.75
    endloop
  endfacet
  facet normal 0.770513 -0.637424 0
    outer loop
      vertex 3.92705 -14.7634 0
      vertex 3.68691 -15.0536 9.75
      vertex 3.68691 -15.0536 0
    endloop
  endfacet
  facet normal 0.248689 -0.968583 0
    outer loop
      vertex 2.06214 -15.9469 0
      vertex 2.42705 -15.8532 9.75
      vertex 2.06214 -15.9469 9.75
    endloop
  endfacet
  facet normal 0.248689 -0.968583 0
    outer loop
      vertex 2.42705 -15.8532 9.75
      vertex 2.06214 -15.9469 0
      vertex 2.42705 -15.8532 0
    endloop
  endfacet
  facet normal -0.481755 -0.876306 0
    outer loop
      vertex -0.10748 -15.533 0
      vertex 0.222662 -15.7145 9.75
      vertex -0.10748 -15.533 9.75
    endloop
  endfacet
  facet normal -0.481755 -0.876306 -0
    outer loop
      vertex 0.222662 -15.7145 9.75
      vertex -0.10748 -15.533 0
      vertex 0.222662 -15.7145 0
    endloop
  endfacet
  facet normal -0.125333 -0.992115 0
    outer loop
      vertex 0.937856 -15.9469 0
      vertex 1.31163 -15.9941 9.75
      vertex 0.937856 -15.9469 9.75
    endloop
  endfacet
  facet normal -0.125333 -0.992115 -0
    outer loop
      vertex 1.31163 -15.9941 9.75
      vertex 0.937856 -15.9469 0
      vertex 1.31163 -15.9941 0
    endloop
  endfacet
  facet normal 0.125333 -0.992115 0
    outer loop
      vertex 5.15698 -14.4951 0
      vertex 5.46845 -14.4557 9.75
      vertex 5.15698 -14.4951 9.75
    endloop
  endfacet
  facet normal 0.125333 -0.992115 0
    outer loop
      vertex 5.46845 -14.4557 9.75
      vertex 5.15698 -14.4951 0
      vertex 5.46845 -14.4557 0
    endloop
  endfacet
  facet normal 0.248691 -0.968583 0
    outer loop
      vertex 5.46845 -14.4557 0
      vertex 5.77254 -14.3776 9.75
      vertex 5.46845 -14.4557 9.75
    endloop
  endfacet
  facet normal 0.248691 -0.968583 0
    outer loop
      vertex 5.77254 -14.3776 9.75
      vertex 5.46845 -14.4557 0
      vertex 5.77254 -14.3776 0
    endloop
  endfacet
  facet normal 0.770514 -0.637423 0
    outer loop
      vertex 6.82242 -13.7114 9.75
      vertex 7.02254 -13.4695 0
      vertex 7.02254 -13.4695 9.75
    endloop
  endfacet
  facet normal 0.770514 -0.637423 0
    outer loop
      vertex 7.02254 -13.4695 0
      vertex 6.82242 -13.7114 9.75
      vertex 6.82242 -13.7114 0
    endloop
  endfacet
  facet normal 0.951057 -0.309016 0
    outer loop
      vertex 7.32444 -12.9203 9.75
      vertex 7.42146 -12.6217 0
      vertex 7.42146 -12.6217 9.75
    endloop
  endfacet
  facet normal 0.951057 -0.309016 0
    outer loop
      vertex 7.42146 -12.6217 0
      vertex 7.32444 -12.9203 9.75
      vertex 7.32444 -12.9203 0
    endloop
  endfacet
  facet normal -0.248691 -0.968583 0
    outer loop
      vertex 4.22746 -14.3776 0
      vertex 4.53155 -14.4557 9.75
      vertex 4.22746 -14.3776 9.75
    endloop
  endfacet
  facet normal -0.248691 -0.968583 -0
    outer loop
      vertex 4.53155 -14.4557 9.75
      vertex 4.22746 -14.3776 0
      vertex 4.53155 -14.4557 0
    endloop
  endfacet
  facet normal 0.481754 -0.876307 0
    outer loop
      vertex 6.06445 -14.2621 0
      vertex 6.33957 -14.1108 9.75
      vertex 6.06445 -14.2621 9.75
    endloop
  endfacet
  facet normal 0.481754 -0.876307 0
    outer loop
      vertex 6.33957 -14.1108 9.75
      vertex 6.06445 -14.2621 0
      vertex 6.33957 -14.1108 0
    endloop
  endfacet
  facet normal 0.982287 -0.187383 0
    outer loop
      vertex 7.42146 -12.6217 9.75
      vertex 7.48029 -12.3133 0
      vertex 7.48029 -12.3133 9.75
    endloop
  endfacet
  facet normal 0.982287 -0.187383 0
    outer loop
      vertex 7.48029 -12.3133 0
      vertex 7.42146 -12.6217 9.75
      vertex 7.42146 -12.6217 0
    endloop
  endfacet
  facet normal 0.998027 -0.0627911 0
    outer loop
      vertex 7.48029 -12.3133 9.75
      vertex 7.5 -12 0
      vertex 7.5 -12 9.75
    endloop
  endfacet
  facet normal 0.998027 -0.0627911 0
    outer loop
      vertex 7.5 -12 0
      vertex 7.48029 -12.3133 9.75
      vertex 7.48029 -12.3133 0
    endloop
  endfacet
  facet normal 0.844327 -0.535828 0
    outer loop
      vertex 7.02254 -13.4695 9.75
      vertex 7.19077 -13.2044 0
      vertex 7.19077 -13.2044 9.75
    endloop
  endfacet
  facet normal 0.844327 -0.535828 0
    outer loop
      vertex 7.19077 -13.2044 0
      vertex 7.02254 -13.4695 9.75
      vertex 7.02254 -13.4695 0
    endloop
  endfacet
  facet normal 0.587784 -0.809018 0
    outer loop
      vertex 6.33957 -14.1108 0
      vertex 6.59356 -13.9263 9.75
      vertex 6.33957 -14.1108 9.75
    endloop
  endfacet
  facet normal 0.587784 -0.809018 0
    outer loop
      vertex 6.59356 -13.9263 9.75
      vertex 6.33957 -14.1108 0
      vertex 6.59356 -13.9263 0
    endloop
  endfacet
  facet normal 0.368126 -0.929776 0
    outer loop
      vertex 5.77254 -14.3776 0
      vertex 6.06445 -14.2621 9.75
      vertex 5.77254 -14.3776 9.75
    endloop
  endfacet
  facet normal 0.368126 -0.929776 0
    outer loop
      vertex 6.06445 -14.2621 9.75
      vertex 5.77254 -14.3776 0
      vertex 6.06445 -14.2621 0
    endloop
  endfacet
  facet normal 0.904827 -0.425779 0
    outer loop
      vertex 7.19077 -13.2044 9.75
      vertex 7.32444 -12.9203 0
      vertex 7.32444 -12.9203 9.75
    endloop
  endfacet
  facet normal 0.904827 -0.425779 0
    outer loop
      vertex 7.32444 -12.9203 0
      vertex 7.19077 -13.2044 9.75
      vertex 7.19077 -13.2044 0
    endloop
  endfacet
  facet normal 0.684547 -0.728969 0
    outer loop
      vertex 6.59356 -13.9263 0
      vertex 6.82242 -13.7114 9.75
      vertex 6.59356 -13.9263 9.75
    endloop
  endfacet
  facet normal 0.684547 -0.728969 0
    outer loop
      vertex 6.82242 -13.7114 9.75
      vertex 6.59356 -13.9263 0
      vertex 6.82242 -13.7114 0
    endloop
  endfacet
  facet normal -0.368129 -0.929775 0
    outer loop
      vertex 4.17122 -14.3554 0
      vertex 4.22746 -14.3776 9.75
      vertex 4.17122 -14.3554 9.75
    endloop
  endfacet
  facet normal -0.368129 -0.929775 -0
    outer loop
      vertex 4.22746 -14.3776 9.75
      vertex 4.17122 -14.3554 0
      vertex 4.22746 -14.3776 0
    endloop
  endfacet
  facet normal -0.125333 -0.992115 0
    outer loop
      vertex 4.53155 -14.4557 0
      vertex 4.84302 -14.4951 9.75
      vertex 4.53155 -14.4557 9.75
    endloop
  endfacet
  facet normal -0.125333 -0.992115 -0
    outer loop
      vertex 4.84302 -14.4951 9.75
      vertex 4.53155 -14.4557 0
      vertex 4.84302 -14.4951 0
    endloop
  endfacet
  facet normal 0 -1 0
    outer loop
      vertex 4.84302 -14.4951 0
      vertex 5.15698 -14.4951 9.75
      vertex 4.84302 -14.4951 9.75
    endloop
  endfacet
  facet normal 0 -1 -0
    outer loop
      vertex 5.15698 -14.4951 9.75
      vertex 4.84302 -14.4951 0
      vertex 5.15698 -14.4951 0
    endloop
  endfacet
  facet normal 0.998027 0.0627917 0
    outer loop
      vertex 5.125 30 9.75
      vertex 5.08459 30.6423 0
      vertex 5.08459 30.6423 9.75
    endloop
  endfacet
  facet normal 0.998027 0.0627917 0
    outer loop
      vertex 5.08459 30.6423 0
      vertex 5.125 30 9.75
      vertex 5.125 30 0
    endloop
  endfacet
  facet normal -0.125334 0.992115 0
    outer loop
      vertex -0.321801 35.1149 0
      vertex -0.960329 35.0342 9.75
      vertex -0.321801 35.1149 9.75
    endloop
  endfacet
  facet normal -0.125334 0.992115 0
    outer loop
      vertex -0.960329 35.0342 9.75
      vertex -0.321801 35.1149 0
      vertex -0.960329 35.0342 0
    endloop
  endfacet
  facet normal 0.982287 0.18738 0
    outer loop
      vertex 5.08459 30.6423 9.75
      vertex 4.96399 31.2745 0
      vertex 4.96399 31.2745 9.75
    endloop
  endfacet
  facet normal 0.982287 0.18738 0
    outer loop
      vertex 4.96399 31.2745 0
      vertex 5.08459 30.6423 9.75
      vertex 5.08459 30.6423 0
    endloop
  endfacet
  facet normal -0.951056 0.309019 0
    outer loop
      vertex -4.96399 31.2745 0
      vertex -4.875 31.5484 9.75
      vertex -4.875 31.5484 0
    endloop
  endfacet
  facet normal -0.951056 0.309019 0
    outer loop
      vertex -4.875 31.5484 9.75
      vertex -4.96399 31.2745 0
      vertex -4.96399 31.2745 9.75
    endloop
  endfacet
  facet normal 0.951056 0.309019 0
    outer loop
      vertex 4.96399 31.2745 9.75
      vertex 4.875 31.5484 0
      vertex 4.875 31.5484 9.75
    endloop
  endfacet
  facet normal 0.951056 0.309019 0
    outer loop
      vertex 4.875 31.5484 0
      vertex 4.96399 31.2745 9.75
      vertex 4.96399 31.2745 0
    endloop
  endfacet
  facet normal 0.125334 0.992115 -0
    outer loop
      vertex 0.960329 35.0342 0
      vertex 0.321801 35.1149 9.75
      vertex 0.960329 35.0342 9.75
    endloop
  endfacet
  facet normal 0.125334 0.992115 0
    outer loop
      vertex 0.321801 35.1149 9.75
      vertex 0.960329 35.0342 0
      vertex 0.321801 35.1149 0
    endloop
  endfacet
  facet normal 0.248689 0.968583 -0
    outer loop
      vertex 1.09361 35 0
      vertex 0.960329 35.0342 9.75
      vertex 1.09361 35 9.75
    endloop
  endfacet
  facet normal 0.248689 0.968583 0
    outer loop
      vertex 0.960329 35.0342 9.75
      vertex 1.09361 35 0
      vertex 0.960329 35.0342 0
    endloop
  endfacet
  facet normal 0 1 -0
    outer loop
      vertex 0.321801 35.1149 0
      vertex -0.321801 35.1149 9.75
      vertex 0.321801 35.1149 9.75
    endloop
  endfacet
  facet normal 0 1 0
    outer loop
      vertex -0.321801 35.1149 9.75
      vertex 0.321801 35.1149 0
      vertex -0.321801 35.1149 0
    endloop
  endfacet
  facet normal -0.982287 0.18738 0
    outer loop
      vertex -5.08459 30.6423 0
      vertex -4.96399 31.2745 9.75
      vertex -4.96399 31.2745 0
    endloop
  endfacet
  facet normal -0.982287 0.18738 0
    outer loop
      vertex -4.96399 31.2745 9.75
      vertex -5.08459 30.6423 0
      vertex -5.08459 30.6423 9.75
    endloop
  endfacet
  facet normal -0.998027 0.0627917 0
    outer loop
      vertex -5.125 30 0
      vertex -5.08459 30.6423 9.75
      vertex -5.08459 30.6423 0
    endloop
  endfacet
  facet normal -0.998027 0.0627917 0
    outer loop
      vertex -5.08459 30.6423 9.75
      vertex -5.125 30 0
      vertex -5.125 30 9.75
    endloop
  endfacet
  facet normal -0.998027 -0.0627916 0
    outer loop
      vertex -5.08459 29.3577 0
      vertex -5.125 30 9.75
      vertex -5.125 30 0
    endloop
  endfacet
  facet normal -0.998027 -0.0627916 0
    outer loop
      vertex -5.125 30 9.75
      vertex -5.08459 29.3577 0
      vertex -5.08459 29.3577 9.75
    endloop
  endfacet
  facet normal -0.248689 0.968583 0
    outer loop
      vertex -0.960329 35.0342 0
      vertex -1.09361 35 9.75
      vertex -0.960329 35.0342 9.75
    endloop
  endfacet
  facet normal -0.248689 0.968583 0
    outer loop
      vertex -1.09361 35 9.75
      vertex -0.960329 35.0342 0
      vertex -1.09361 35 0
    endloop
  endfacet
  facet normal 0.998027 -0.0627916 0
    outer loop
      vertex 5.08459 29.3577 9.75
      vertex 5.125 30 0
      vertex 5.125 30 9.75
    endloop
  endfacet
  facet normal 0.998027 -0.0627916 0
    outer loop
      vertex 5.125 30 0
      vertex 5.08459 29.3577 9.75
      vertex 5.08459 29.3577 0
    endloop
  endfacet
  facet normal 0.982287 -0.187381 0
    outer loop
      vertex 4.96399 28.7255 9.75
      vertex 5.08459 29.3577 0
      vertex 5.08459 29.3577 9.75
    endloop
  endfacet
  facet normal 0.982287 -0.187381 0
    outer loop
      vertex 5.08459 29.3577 0
      vertex 4.96399 28.7255 9.75
      vertex 4.96399 28.7255 0
    endloop
  endfacet
  facet normal -0.951057 -0.309017 0
    outer loop
      vertex -4.875 28.4516 0
      vertex -4.96399 28.7255 9.75
      vertex -4.96399 28.7255 0
    endloop
  endfacet
  facet normal -0.951057 -0.309017 0
    outer loop
      vertex -4.96399 28.7255 9.75
      vertex -4.875 28.4516 0
      vertex -4.875 28.4516 9.75
    endloop
  endfacet
  facet normal -0.982287 -0.187381 0
    outer loop
      vertex -4.96399 28.7255 0
      vertex -5.08459 29.3577 9.75
      vertex -5.08459 29.3577 0
    endloop
  endfacet
  facet normal -0.982287 -0.187381 0
    outer loop
      vertex -5.08459 29.3577 9.75
      vertex -4.96399 28.7255 0
      vertex -4.96399 28.7255 9.75
    endloop
  endfacet
  facet normal 0.951057 -0.309017 0
    outer loop
      vertex 4.875 28.4516 9.75
      vertex 4.96399 28.7255 0
      vertex 4.96399 28.7255 9.75
    endloop
  endfacet
  facet normal 0.951057 -0.309017 0
    outer loop
      vertex 4.96399 28.7255 0
      vertex 4.875 28.4516 9.75
      vertex 4.875 28.4516 0
    endloop
  endfacet
endsolid OpenSCAD_Model
