solid OpenSCAD_Model
  facet normal -1 0 0
    outer loop
      vertex -4.875 6 0
      vertex -4.875 35 9.75
      vertex -4.875 35 0
    endloop
  endfacet
  facet normal -1 -0 0
    outer loop
      vertex -4.875 35 9.75
      vertex -4.875 6 0
      vertex -4.875 6 9.75
    endloop
  endfacet
  facet normal 0 0 1
    outer loop
      vertex 4.875 35 9.75
      vertex -4.875 35 9.75
      vertex 4.875 6 9.75
    endloop
  endfacet
  facet normal 0 0 1
    outer loop
      vertex 7.5 6 9.75
      vertex 4.875 6 9.75
      vertex 7.5 -25 9.75
    endloop
  endfacet
  facet normal -0 0 1
    outer loop
      vertex 7.5 -25 9.75
      vertex 50 -40 9.75
      vertex 50 -25 9.75
    endloop
  endfacet
  facet normal 0 0 1
    outer loop
      vertex -4.875 6 9.75
      vertex 4.875 6 9.75
      vertex -4.875 35 9.75
    endloop
  endfacet
  facet normal 0 0 1
    outer loop
      vertex 4.875 6 9.75
      vertex -4.875 6 9.75
      vertex 7.5 -25 9.75
    endloop
  endfacet
  facet normal 0 0 1
    outer loop
      vertex -7.5 -25 9.75
      vertex -4.875 6 9.75
      vertex -7.5 6 9.75
    endloop
  endfacet
  facet normal 0 0 1
    outer loop
      vertex -4.875 6 9.75
      vertex -7.5 -25 9.75
      vertex 7.5 -25 9.75
    endloop
  endfacet
  facet normal -0 0 1
    outer loop
      vertex -7.5 -25 9.75
      vertex 50 -40 9.75
      vertex 7.5 -25 9.75
    endloop
  endfacet
  facet normal 0 0 1
    outer loop
      vertex -50 -40 9.75
      vertex -7.5 -25 9.75
      vertex -50 -25 9.75
    endloop
  endfacet
  facet normal 0 0 1
    outer loop
      vertex -7.5 -25 9.75
      vertex -50 -40 9.75
      vertex 50 -40 9.75
    endloop
  endfacet
  facet normal 1 -0 0
    outer loop
      vertex 4.875 6 9.75
      vertex 4.875 35 0
      vertex 4.875 35 9.75
    endloop
  endfacet
  facet normal 1 0 0
    outer loop
      vertex 4.875 35 0
      vertex 4.875 6 9.75
      vertex 4.875 6 0
    endloop
  endfacet
  facet normal 0 0 -1
    outer loop
      vertex 50 -40 0
      vertex 7.5 -25 0
      vertex 50 -25 0
    endloop
  endfacet
  facet normal 0 0 -1
    outer loop
      vertex 7.5 -25 0
      vertex 4.875 6 0
      vertex 7.5 6 0
    endloop
  endfacet
  facet normal 0 0 -1
    outer loop
      vertex 4.875 6 0
      vertex -4.875 6 0
      vertex 4.875 35 0
    endloop
  endfacet
  facet normal 0 0 -1
    outer loop
      vertex 7.5 -25 0
      vertex -4.875 6 0
      vertex 4.875 6 0
    endloop
  endfacet
  facet normal 0 0 -1
    outer loop
      vertex 7.5 -25 0
      vertex -7.5 -25 0
      vertex -4.875 6 0
    endloop
  endfacet
  facet normal 0 0 -1
    outer loop
      vertex 50 -40 0
      vertex -7.5 -25 0
      vertex 7.5 -25 0
    endloop
  endfacet
  facet normal 0 0 -1
    outer loop
      vertex -50 -40 0
      vertex -7.5 -25 0
      vertex 50 -40 0
    endloop
  endfacet
  facet normal -0 0 -1
    outer loop
      vertex -7.5 -25 0
      vertex -50 -40 0
      vertex -50 -25 0
    endloop
  endfacet
  facet normal -0 0 -1
    outer loop
      vertex 4.875 35 0
      vertex -4.875 6 0
      vertex -4.875 35 0
    endloop
  endfacet
  facet normal -0 0 -1
    outer loop
      vertex -4.875 6 0
      vertex -7.5 -25 0
      vertex -7.5 6 0
    endloop
  endfacet
  facet normal 0 1 -0
    outer loop
      vertex 4.875 35 0
      vertex -4.875 35 9.75
      vertex 4.875 35 9.75
    endloop
  endfacet
  facet normal 0 1 0
    outer loop
      vertex -4.875 35 9.75
      vertex 4.875 35 0
      vertex -4.875 35 0
    endloop
  endfacet
  facet normal -1 0 0
    outer loop
      vertex -7.5 -25 0
      vertex -7.5 6 9.75
      vertex -7.5 6 0
    endloop
  endfacet
  facet normal -1 -0 0
    outer loop
      vertex -7.5 6 9.75
      vertex -7.5 -25 0
      vertex -7.5 -25 9.75
    endloop
  endfacet
  facet normal 1 -0 0
    outer loop
      vertex 7.5 -25 9.75
      vertex 7.5 6 0
      vertex 7.5 6 9.75
    endloop
  endfacet
  facet normal 1 0 0
    outer loop
      vertex 7.5 6 0
      vertex 7.5 -25 9.75
      vertex 7.5 -25 0
    endloop
  endfacet
  facet normal 0 1 -0
    outer loop
      vertex 7.5 6 0
      vertex 4.875 6 9.75
      vertex 7.5 6 9.75
    endloop
  endfacet
  facet normal 0 1 0
    outer loop
      vertex 4.875 6 9.75
      vertex 7.5 6 0
      vertex 4.875 6 0
    endloop
  endfacet
  facet normal 0 1 -0
    outer loop
      vertex -4.875 6 0
      vertex -7.5 6 9.75
      vertex -4.875 6 9.75
    endloop
  endfacet
  facet normal 0 1 0
    outer loop
      vertex -7.5 6 9.75
      vertex -4.875 6 0
      vertex -7.5 6 0
    endloop
  endfacet
  facet normal -1 0 0
    outer loop
      vertex -50 -40 0
      vertex -50 -25 9.75
      vertex -50 -25 0
    endloop
  endfacet
  facet normal -1 -0 0
    outer loop
      vertex -50 -25 9.75
      vertex -50 -40 0
      vertex -50 -40 9.75
    endloop
  endfacet
  facet normal 1 -0 0
    outer loop
      vertex 50 -40 9.75
      vertex 50 -25 0
      vertex 50 -25 9.75
    endloop
  endfacet
  facet normal 1 0 0
    outer loop
      vertex 50 -25 0
      vertex 50 -40 9.75
      vertex 50 -40 0
    endloop
  endfacet
  facet normal 0 1 -0
    outer loop
      vertex 50 -25 0
      vertex 7.5 -25 9.75
      vertex 50 -25 9.75
    endloop
  endfacet
  facet normal 0 1 0
    outer loop
      vertex 7.5 -25 9.75
      vertex 50 -25 0
      vertex 7.5 -25 0
    endloop
  endfacet
  facet normal 0 1 -0
    outer loop
      vertex -7.5 -25 0
      vertex -50 -25 9.75
      vertex -7.5 -25 9.75
    endloop
  endfacet
  facet normal 0 1 0
    outer loop
      vertex -50 -25 9.75
      vertex -7.5 -25 0
      vertex -50 -25 0
    endloop
  endfacet
  facet normal 0 -1 0
    outer loop
      vertex -50 -40 0
      vertex 50 -40 9.75
      vertex -50 -40 9.75
    endloop
  endfacet
  facet normal 0 -1 -0
    outer loop
      vertex 50 -40 9.75
      vertex -50 -40 0
      vertex 50 -40 0
    endloop
  endfacet
endsolid OpenSCAD_Model
