solid OpenSCAD_Model
  facet normal -2.48811e-015 6.11782e-009 -1
    outer loop
      vertex 45.5 -53.6006 1.48918e-007
      vertex 40.5 -33.0223 2.74813e-007
      vertex 45.5 53.6006 8.04756e-007
    endloop
  endfacet
  facet normal 0 6.11782e-009 -1
    outer loop
      vertex 45.5 -53.6006 1.48918e-007
      vertex -40.5 -33.0223 2.74813e-007
      vertex 40.5 -33.0223 2.74813e-007
    endloop
  endfacet
  facet normal -5.74697e-016 6.11782e-009 -1
    outer loop
      vertex -40.5 -33.0223 2.74813e-007
      vertex -45.5 -53.6006 1.48918e-007
      vertex -40.5 33.0223 6.78862e-007
    endloop
  endfacet
  facet normal -1.56163e-016 6.11782e-009 -1
    outer loop
      vertex -45.5 -53.6006 1.48918e-007
      vertex -40.5 -33.0223 2.74813e-007
      vertex 45.5 -53.6006 1.48918e-007
    endloop
  endfacet
  facet normal -3.41687e-015 6.11782e-009 -1
    outer loop
      vertex 40.5 33.0223 6.78862e-007
      vertex 45.5 53.6006 8.04756e-007
      vertex 40.5 -33.0223 2.74813e-007
    endloop
  endfacet
  facet normal 0 6.11782e-009 -1
    outer loop
      vertex -40.5 33.0223 6.78862e-007
      vertex 45.5 53.6006 8.04756e-007
      vertex 40.5 33.0223 6.78862e-007
    endloop
  endfacet
  facet normal -6.24653e-016 6.11783e-009 -1
    outer loop
      vertex -40.5 33.0223 6.78862e-007
      vertex -45.5 53.6006 8.04756e-007
      vertex 45.5 53.6006 8.04756e-007
    endloop
  endfacet
  facet normal -6.5357e-015 6.11782e-009 -1
    outer loop
      vertex -45.5 53.6006 8.04756e-007
      vertex -40.5 33.0223 6.78862e-007
      vertex -45.5 -53.6006 1.48918e-007
    endloop
  endfacet
  facet normal 0 0.866025 0.5
    outer loop
      vertex 45.5 65.7583 21.1033
      vertex 40.5 12.1769 113.909
      vertex 45.5 12.1769 113.909
    endloop
  endfacet
  facet normal 0 0.866025 0.5
    outer loop
      vertex 40.5 12.1769 113.909
      vertex 45.5 65.7583 21.1033
      vertex 40.5 65.7583 21.1033
    endloop
  endfacet
  facet normal 0 -0.866025 0.5
    outer loop
      vertex 40.5 -65.7583 21.1033
      vertex 45.5 -12.1769 113.909
      vertex 40.5 -12.1769 113.909
    endloop
  endfacet
  facet normal 0 -0.866025 0.5
    outer loop
      vertex 45.5 -12.1769 113.909
      vertex 40.5 -65.7583 21.1033
      vertex 45.5 -65.7583 21.1033
    endloop
  endfacet
  facet normal -1 0 0
    outer loop
      vertex 40.5 41.414 2.90015
      vertex 40.5 43.3013 20
      vertex 40.5 47.9002 5.70696
    endloop
  endfacet
  facet normal -1 0 0
    outer loop
      vertex 40.5 34.7644 0.506143
      vertex 40.5 43.3013 20
      vertex 40.5 41.414 2.90015
    endloop
  endfacet
  facet normal -1 0 0
    outer loop
      vertex 40.5 33.0223 6.78862e-007
      vertex 40.5 43.3013 20
      vertex 40.5 34.7644 0.506143
    endloop
  endfacet
  facet normal -1 0 0
    outer loop
      vertex 40.5 -33.0223 2.74813e-007
      vertex 40.5 43.3013 20
      vertex 40.5 33.0223 6.78862e-007
    endloop
  endfacet
  facet normal -1 0 0
    outer loop
      vertex 40.5 -43.3013 20
      vertex 40.5 -33.0223 2.74813e-007
      vertex 40.5 -34.7644 0.506143
    endloop
  endfacet
  facet normal -1 0 0
    outer loop
      vertex 40.5 -43.3013 20
      vertex 40.5 -34.7644 0.506143
      vertex 40.5 -41.414 2.90015
    endloop
  endfacet
  facet normal -1 0 0
    outer loop
      vertex 40.5 -33.0223 2.74813e-007
      vertex 40.5 -43.3013 20
      vertex 40.5 43.3013 20
    endloop
  endfacet
  facet normal -1 0 -0
    outer loop
      vertex 40.5 -43.3013 20
      vertex 40.5 -41.414 2.90015
      vertex 40.5 -47.9002 5.70696
    endloop
  endfacet
  facet normal -1 0 0
    outer loop
      vertex 40.5 60.2805 12.5131
      vertex 40.5 65.0844 19.2313
      vertex 40.5 63.3379 15.1954
    endloop
  endfacet
  facet normal -1 0 0
    outer loop
      vertex 40.5 60.2805 12.5131
      vertex 40.5 63.3379 15.1954
      vertex 40.5 62.8667 14.2707
    endloop
  endfacet
  facet normal -1 0 0
    outer loop
      vertex 40.5 43.3013 20
      vertex 40.5 65.0844 19.2313
      vertex 40.5 60.2805 12.5131
    endloop
  endfacet
  facet normal -1 0 0
    outer loop
      vertex 40.5 43.3013 20
      vertex 40.5 60.2805 12.5131
      vertex 40.5 54.1973 8.9155
    endloop
  endfacet
  facet normal -1 0 0
    outer loop
      vertex 40.5 43.3013 20
      vertex 40.5 54.1973 8.9155
      vertex 40.5 47.9002 5.70696
    endloop
  endfacet
  facet normal -1 0 0
    outer loop
      vertex 40.5 65.0844 19.2313
      vertex 40.5 43.3013 20
      vertex 40.5 65.7583 21.1033
    endloop
  endfacet
  facet normal -1 0 0
    outer loop
      vertex 40.5 5.125 99.875
      vertex 40.5 65.7583 21.1033
      vertex 40.5 43.3013 20
    endloop
  endfacet
  facet normal -1 0 0
    outer loop
      vertex 40.5 65.7583 21.1033
      vertex 40.5 5.125 99.875
      vertex 40.5 12.1769 113.909
    endloop
  endfacet
  facet normal -1 -0 0
    outer loop
      vertex 40.5 12.1769 113.909
      vertex 40.5 5.125 99.875
      vertex 40.5 8.77333 114.448
    endloop
  endfacet
  facet normal -1 0 0
    outer loop
      vertex 40.5 0 95
      vertex 40.5 5.125 99.875
      vertex 40.5 43.3013 20
    endloop
  endfacet
  facet normal -1 0 0
    outer loop
      vertex 40.5 0 95
      vertex 40.5 -5.125 99.875
      vertex 40.5 5.125 99.875
    endloop
  endfacet
  facet normal -1 0 0
    outer loop
      vertex 40.5 -5.125 99.875
      vertex 40.5 -8.77333 114.448
      vertex 40.5 -5.125 114.793
    endloop
  endfacet
  facet normal -1 0 0
    outer loop
      vertex 40.5 -5.125 99.875
      vertex 40.5 -12.1769 113.909
      vertex 40.5 -8.77333 114.448
    endloop
  endfacet
  facet normal -1 0 0
    outer loop
      vertex 40.5 -43.3013 20
      vertex 40.5 -5.125 99.875
      vertex 40.5 0 95
    endloop
  endfacet
  facet normal -1 0 0
    outer loop
      vertex 40.5 -65.7583 21.1033
      vertex 40.5 -5.125 99.875
      vertex 40.5 -43.3013 20
    endloop
  endfacet
  facet normal -1 0 0
    outer loop
      vertex 40.5 -54.1973 8.9155
      vertex 40.5 -43.3013 20
      vertex 40.5 -47.9002 5.70696
    endloop
  endfacet
  facet normal -1 0 0
    outer loop
      vertex 40.5 -60.2805 12.5131
      vertex 40.5 -43.3013 20
      vertex 40.5 -54.1973 8.9155
    endloop
  endfacet
  facet normal -1 0 0
    outer loop
      vertex 40.5 -65.0844 19.2313
      vertex 40.5 -43.3013 20
      vertex 40.5 -60.2805 12.5131
    endloop
  endfacet
  facet normal -1 0 0
    outer loop
      vertex 40.5 -63.3379 15.1954
      vertex 40.5 -60.2805 12.5131
      vertex 40.5 -62.8667 14.2707
    endloop
  endfacet
  facet normal -1 0 0
    outer loop
      vertex 40.5 -65.0844 19.2313
      vertex 40.5 -60.2805 12.5131
      vertex 40.5 -63.3379 15.1954
    endloop
  endfacet
  facet normal -1 -0 0
    outer loop
      vertex 40.5 -43.3013 20
      vertex 40.5 -65.0844 19.2313
      vertex 40.5 -65.7583 21.1033
    endloop
  endfacet
  facet normal -1 -0 0
    outer loop
      vertex 40.5 -5.125 99.875
      vertex 40.5 -65.7583 21.1033
      vertex 40.5 -12.1769 113.909
    endloop
  endfacet
  facet normal -1 -0 0
    outer loop
      vertex 40.5 8.77333 114.448
      vertex 40.5 5.125 99.875
      vertex 40.5 5.125 114.793
    endloop
  endfacet
  facet normal 1 0 0
    outer loop
      vertex 45.5 -5.125 114.793
      vertex 45.5 -8.77333 114.448
      vertex 45.5 -5.125 99.875
    endloop
  endfacet
  facet normal 1 -0 0
    outer loop
      vertex 45.5 43.3013 20
      vertex 45.5 65.0844 19.2313
      vertex 45.5 65.7583 21.1033
    endloop
  endfacet
  facet normal 1 0 0
    outer loop
      vertex 45.5 65.0844 19.2313
      vertex 45.5 43.3013 20
      vertex 45.5 63.3379 15.1954
    endloop
  endfacet
  facet normal 1 0 0
    outer loop
      vertex 45.5 63.3379 15.1954
      vertex 45.5 43.3013 20
      vertex 45.5 61.3415 11.2772
    endloop
  endfacet
  facet normal 1 0 0
    outer loop
      vertex 45.5 61.3415 11.2772
      vertex 45.5 43.3013 20
      vertex 45.5 59.103 7.49212
    endloop
  endfacet
  facet normal 1 0 0
    outer loop
      vertex 45.5 59.103 7.49212
      vertex 45.5 43.3013 20
      vertex 45.5 56.6312 3.85503
    endloop
  endfacet
  facet normal 1 0 0
    outer loop
      vertex 45.5 56.6312 3.85503
      vertex 45.5 43.3013 20
      vertex 45.5 53.9359 0.380322
    endloop
  endfacet
  facet normal 1 0 0
    outer loop
      vertex 45.5 53.9359 0.380322
      vertex 45.5 43.3013 20
      vertex 45.5 53.6006 8.04756e-007
    endloop
  endfacet
  facet normal 1 -0 0
    outer loop
      vertex 45.5 5.125 99.875
      vertex 45.5 65.7583 21.1033
      vertex 45.5 12.1769 113.909
    endloop
  endfacet
  facet normal 1 0 0
    outer loop
      vertex 45.5 5.125 99.875
      vertex 45.5 12.1769 113.909
      vertex 45.5 8.77333 114.448
    endloop
  endfacet
  facet normal 1 0 0
    outer loop
      vertex 45.5 5.125 99.875
      vertex 45.5 8.77333 114.448
      vertex 45.5 5.125 114.793
    endloop
  endfacet
  facet normal 1 0 0
    outer loop
      vertex 45.5 65.7583 21.1033
      vertex 45.5 5.125 99.875
      vertex 45.5 43.3013 20
    endloop
  endfacet
  facet normal 1 0 0
    outer loop
      vertex 45.5 5.125 99.875
      vertex 45.5 0 95
      vertex 45.5 43.3013 20
    endloop
  endfacet
  facet normal 1 -0 0
    outer loop
      vertex 45.5 -5.125 99.875
      vertex 45.5 0 95
      vertex 45.5 5.125 99.875
    endloop
  endfacet
  facet normal 1 -0 0
    outer loop
      vertex 45.5 -12.1769 113.909
      vertex 45.5 -5.125 99.875
      vertex 45.5 -8.77333 114.448
    endloop
  endfacet
  facet normal 1 0 0
    outer loop
      vertex 45.5 -5.125 99.875
      vertex 45.5 -43.3013 20
      vertex 45.5 0 95
    endloop
  endfacet
  facet normal 1 0 0
    outer loop
      vertex 45.5 -65.7583 21.1033
      vertex 45.5 -5.125 99.875
      vertex 45.5 -12.1769 113.909
    endloop
  endfacet
  facet normal 1 0 0
    outer loop
      vertex 45.5 -5.125 99.875
      vertex 45.5 -65.7583 21.1033
      vertex 45.5 -43.3013 20
    endloop
  endfacet
  facet normal 1 0 -0
    outer loop
      vertex 45.5 -53.9359 0.380322
      vertex 45.5 -43.3013 20
      vertex 45.5 -56.6312 3.85503
    endloop
  endfacet
  facet normal 1 0 0
    outer loop
      vertex 45.5 -43.3013 20
      vertex 45.5 -53.9359 0.380322
      vertex 45.5 -53.6006 1.48918e-007
    endloop
  endfacet
  facet normal 1 0 0
    outer loop
      vertex 45.5 -43.3013 20
      vertex 45.5 -59.103 7.49212
      vertex 45.5 -56.6312 3.85503
    endloop
  endfacet
  facet normal 1 0 0
    outer loop
      vertex 45.5 -43.3013 20
      vertex 45.5 -61.3415 11.2772
      vertex 45.5 -59.103 7.49212
    endloop
  endfacet
  facet normal 1 0 0
    outer loop
      vertex 45.5 -43.3013 20
      vertex 45.5 -63.3379 15.1954
      vertex 45.5 -61.3415 11.2772
    endloop
  endfacet
  facet normal 1 0 -0
    outer loop
      vertex 45.5 -65.0844 19.2313
      vertex 45.5 -43.3013 20
      vertex 45.5 -65.7583 21.1033
    endloop
  endfacet
  facet normal 1 0 0
    outer loop
      vertex 45.5 -43.3013 20
      vertex 45.5 -65.0844 19.2313
      vertex 45.5 -63.3379 15.1954
    endloop
  endfacet
  facet normal 1 -0 0
    outer loop
      vertex 45.5 -43.3013 20
      vertex 45.5 53.6006 8.04756e-007
      vertex 45.5 43.3013 20
    endloop
  endfacet
  facet normal 1 0 0
    outer loop
      vertex 45.5 53.6006 8.04756e-007
      vertex 45.5 -43.3013 20
      vertex 45.5 -53.6006 1.48918e-007
    endloop
  endfacet
  facet normal 0 0.94088 -0.338739
    outer loop
      vertex 45.5 65.0844 19.2313
      vertex 40.5 65.7583 21.1033
      vertex 45.5 65.7583 21.1033
    endloop
  endfacet
  facet normal 0 0.94088 -0.338739
    outer loop
      vertex 40.5 65.7583 21.1033
      vertex 45.5 65.0844 19.2313
      vertex 40.5 65.0844 19.2313
    endloop
  endfacet
  facet normal -0 0.156435 0.987688
    outer loop
      vertex 40.5 12.1769 113.909
      vertex 45.5 8.77333 114.448
      vertex 45.5 12.1769 113.909
    endloop
  endfacet
  facet normal 0 0.156435 0.987688
    outer loop
      vertex 45.5 8.77333 114.448
      vertex 40.5 12.1769 113.909
      vertex 40.5 8.77333 114.448
    endloop
  endfacet
  facet normal 0 0.860742 -0.509042
    outer loop
      vertex 45.5 59.103 7.49212
      vertex -45.5 61.3415 11.2772
      vertex 45.5 61.3415 11.2772
    endloop
  endfacet
  facet normal 0 0.860742 -0.509042
    outer loop
      vertex -45.5 61.3415 11.2772
      vertex 45.5 59.103 7.49212
      vertex -45.5 59.103 7.49212
    endloop
  endfacet
  facet normal 0 0.82708 -0.562084
    outer loop
      vertex 45.5 56.6312 3.85503
      vertex -45.5 59.103 7.49212
      vertex 45.5 59.103 7.49212
    endloop
  endfacet
  facet normal 0 0.82708 -0.562084
    outer loop
      vertex -45.5 59.103 7.49212
      vertex 45.5 56.6312 3.85503
      vertex -45.5 56.6312 3.85503
    endloop
  endfacet
  facet normal 0 0.917755 -0.397147
    outer loop
      vertex 45.5 63.3379 15.1954
      vertex 40.5 65.0844 19.2313
      vertex 45.5 65.0844 19.2313
    endloop
  endfacet
  facet normal 0 0.917755 -0.397147
    outer loop
      vertex 40.5 65.0844 19.2313
      vertex 45.5 63.3379 15.1954
      vertex 40.5 63.3379 15.1954
    endloop
  endfacet
  facet normal 0 0.790155 -0.612907
    outer loop
      vertex 45.5 53.9359 0.380322
      vertex -45.5 56.6312 3.85503
      vertex 45.5 56.6312 3.85503
    endloop
  endfacet
  facet normal 0 0.790155 -0.612907
    outer loop
      vertex -45.5 56.6312 3.85503
      vertex 45.5 53.9359 0.380322
      vertex -45.5 53.9359 0.380322
    endloop
  endfacet
  facet normal 0 -0.82708 -0.562084
    outer loop
      vertex -45.5 -56.6312 3.85503
      vertex 45.5 -59.103 7.49212
      vertex -45.5 -59.103 7.49212
    endloop
  endfacet
  facet normal 0 -0.82708 -0.562084
    outer loop
      vertex 45.5 -59.103 7.49212
      vertex -45.5 -56.6312 3.85503
      vertex 45.5 -56.6312 3.85503
    endloop
  endfacet
  facet normal 0 -0.891006 -0.453991
    outer loop
      vertex -45.5 -63.3379 15.1954
      vertex -40.5 -62.8667 14.2707
      vertex -40.5 -63.3379 15.1954
    endloop
  endfacet
  facet normal 0 -0.891007 -0.45399
    outer loop
      vertex -40.5 -62.8667 14.2707
      vertex -45.5 -61.3415 11.2772
      vertex 40.5 -62.8667 14.2707
    endloop
  endfacet
  facet normal 1.31957e-007 -0.891007 -0.45399
    outer loop
      vertex -45.5 -61.3415 11.2772
      vertex -40.5 -62.8667 14.2707
      vertex -45.5 -63.3379 15.1954
    endloop
  endfacet
  facet normal 0 -0.891006 -0.453991
    outer loop
      vertex 40.5 -62.8667 14.2707
      vertex 45.5 -63.3379 15.1954
      vertex 40.5 -63.3379 15.1954
    endloop
  endfacet
  facet normal -1.31957e-007 -0.891007 -0.45399
    outer loop
      vertex 40.5 -62.8667 14.2707
      vertex 45.5 -61.3415 11.2772
      vertex 45.5 -63.3379 15.1954
    endloop
  endfacet
  facet normal -0 -0.891007 -0.45399
    outer loop
      vertex 45.5 -61.3415 11.2772
      vertex 40.5 -62.8667 14.2707
      vertex -45.5 -61.3415 11.2772
    endloop
  endfacet
  facet normal 0 -0.790155 -0.612907
    outer loop
      vertex -45.5 -53.9359 0.380322
      vertex 45.5 -56.6312 3.85503
      vertex -45.5 -56.6312 3.85503
    endloop
  endfacet
  facet normal 0 -0.790155 -0.612907
    outer loop
      vertex 45.5 -56.6312 3.85503
      vertex -45.5 -53.9359 0.380322
      vertex 45.5 -53.9359 0.380322
    endloop
  endfacet
  facet normal 0 0.750108 -0.661315
    outer loop
      vertex 45.5 53.9359 0.380322
      vertex -45.5 53.6006 8.04756e-007
      vertex -45.5 53.9359 0.380322
    endloop
  endfacet
  facet normal -4.13092e-016 0.750108 -0.661315
    outer loop
      vertex -45.5 53.6006 8.04756e-007
      vertex 45.5 53.9359 0.380322
      vertex 45.5 53.6006 8.04756e-007
    endloop
  endfacet
  facet normal 0 -0.156435 0.987688
    outer loop
      vertex 40.5 -8.77333 114.448
      vertex 45.5 -12.1769 113.909
      vertex 45.5 -8.77333 114.448
    endloop
  endfacet
  facet normal 0 -0.156435 0.987688
    outer loop
      vertex 45.5 -12.1769 113.909
      vertex 40.5 -8.77333 114.448
      vertex 40.5 -12.1769 113.909
    endloop
  endfacet
  facet normal 0 -0.917755 -0.397147
    outer loop
      vertex 40.5 -63.3379 15.1954
      vertex 45.5 -65.0844 19.2313
      vertex 40.5 -65.0844 19.2313
    endloop
  endfacet
  facet normal 0 -0.917755 -0.397147
    outer loop
      vertex 45.5 -65.0844 19.2313
      vertex 40.5 -63.3379 15.1954
      vertex 45.5 -63.3379 15.1954
    endloop
  endfacet
  facet normal 0 -0.94088 -0.338739
    outer loop
      vertex 40.5 -65.0844 19.2313
      vertex 45.5 -65.7583 21.1033
      vertex 40.5 -65.7583 21.1033
    endloop
  endfacet
  facet normal 0 -0.94088 -0.338739
    outer loop
      vertex 45.5 -65.7583 21.1033
      vertex 40.5 -65.0844 19.2313
      vertex 45.5 -65.0844 19.2313
    endloop
  endfacet
  facet normal 0 -0.860742 -0.509042
    outer loop
      vertex -45.5 -59.103 7.49212
      vertex 45.5 -61.3415 11.2772
      vertex -45.5 -61.3415 11.2772
    endloop
  endfacet
  facet normal 0 -0.860742 -0.509042
    outer loop
      vertex 45.5 -61.3415 11.2772
      vertex -45.5 -59.103 7.49212
      vertex 45.5 -59.103 7.49212
    endloop
  endfacet
  facet normal 0 -0.750109 -0.661314
    outer loop
      vertex -45.5 -53.6006 1.48918e-007
      vertex 45.5 -53.9359 0.380322
      vertex -45.5 -53.9359 0.380322
    endloop
  endfacet
  facet normal -1.03469e-016 -0.750109 -0.661314
    outer loop
      vertex 45.5 -53.9359 0.380322
      vertex -45.5 -53.6006 1.48918e-007
      vertex 45.5 -53.6006 1.48918e-007
    endloop
  endfacet
  facet normal -0 0.0941092 0.995562
    outer loop
      vertex 40.5 8.77333 114.448
      vertex 45.5 5.125 114.793
      vertex 45.5 8.77333 114.448
    endloop
  endfacet
  facet normal 0 0.0941092 0.995562
    outer loop
      vertex 45.5 5.125 114.793
      vertex 40.5 8.77333 114.448
      vertex 40.5 5.125 114.793
    endloop
  endfacet
  facet normal 0 0.891006 -0.453991
    outer loop
      vertex 45.5 63.3379 15.1954
      vertex 40.5 62.8667 14.2707
      vertex 40.5 63.3379 15.1954
    endloop
  endfacet
  facet normal 0 0.891007 -0.45399
    outer loop
      vertex 40.5 62.8667 14.2707
      vertex 45.5 61.3415 11.2772
      vertex -40.5 62.8667 14.2707
    endloop
  endfacet
  facet normal -1.31957e-007 0.891007 -0.45399
    outer loop
      vertex 45.5 61.3415 11.2772
      vertex 40.5 62.8667 14.2707
      vertex 45.5 63.3379 15.1954
    endloop
  endfacet
  facet normal 0 0.891006 -0.453991
    outer loop
      vertex -40.5 62.8667 14.2707
      vertex -45.5 63.3379 15.1954
      vertex -40.5 63.3379 15.1954
    endloop
  endfacet
  facet normal 1.31957e-007 0.891007 -0.45399
    outer loop
      vertex -40.5 62.8667 14.2707
      vertex -45.5 61.3415 11.2772
      vertex -45.5 63.3379 15.1954
    endloop
  endfacet
  facet normal 0 0.891007 -0.45399
    outer loop
      vertex -45.5 61.3415 11.2772
      vertex -40.5 62.8667 14.2707
      vertex 45.5 61.3415 11.2772
    endloop
  endfacet
  facet normal 0 -0.0941092 0.995562
    outer loop
      vertex 40.5 -5.125 114.793
      vertex 45.5 -8.77333 114.448
      vertex 45.5 -5.125 114.793
    endloop
  endfacet
  facet normal 0 -0.0941092 0.995562
    outer loop
      vertex 45.5 -8.77333 114.448
      vertex 40.5 -5.125 114.793
      vertex 40.5 -8.77333 114.448
    endloop
  endfacet
  facet normal -0 0 1
    outer loop
      vertex 40.5 43.3013 20
      vertex 45.5 -43.3013 20
      vertex 45.5 43.3013 20
    endloop
  endfacet
  facet normal 0 0 1
    outer loop
      vertex 45.5 -43.3013 20
      vertex 40.5 43.3013 20
      vertex 40.5 -43.3013 20
    endloop
  endfacet
  facet normal 0 -0.866025 -0.5
    outer loop
      vertex 40.5 43.3013 20
      vertex 45.5 0 95
      vertex 40.5 0 95
    endloop
  endfacet
  facet normal 0 -0.866025 -0.5
    outer loop
      vertex 45.5 0 95
      vertex 40.5 43.3013 20
      vertex 45.5 43.3013 20
    endloop
  endfacet
  facet normal 0 0.866025 -0.5
    outer loop
      vertex 45.5 -43.3013 20
      vertex 40.5 0 95
      vertex 45.5 0 95
    endloop
  endfacet
  facet normal 0 0.866025 -0.5
    outer loop
      vertex 40.5 0 95
      vertex 45.5 -43.3013 20
      vertex 40.5 -43.3013 20
    endloop
  endfacet
  facet normal -0 0 1
    outer loop
      vertex 40.5 5.125 99.875
      vertex 45.5 -5.125 99.875
      vertex 45.5 5.125 99.875
    endloop
  endfacet
  facet normal 0 0 1
    outer loop
      vertex 45.5 -5.125 99.875
      vertex 40.5 5.125 99.875
      vertex 40.5 -5.125 99.875
    endloop
  endfacet
  facet normal 0 1 -0
    outer loop
      vertex 45.5 -5.125 99.875
      vertex 40.5 -5.125 114.793
      vertex 45.5 -5.125 114.793
    endloop
  endfacet
  facet normal 0 1 0
    outer loop
      vertex 40.5 -5.125 114.793
      vertex 45.5 -5.125 99.875
      vertex 40.5 -5.125 99.875
    endloop
  endfacet
  facet normal 0 -1 0
    outer loop
      vertex 40.5 5.125 99.875
      vertex 45.5 5.125 114.793
      vertex 40.5 5.125 114.793
    endloop
  endfacet
  facet normal 0 -1 -0
    outer loop
      vertex 45.5 5.125 114.793
      vertex 40.5 5.125 99.875
      vertex 45.5 5.125 99.875
    endloop
  endfacet
  facet normal 1 0 0
    outer loop
      vertex -40.5 -5.125 114.793
      vertex -40.5 -8.77333 114.448
      vertex -40.5 -5.125 99.875
    endloop
  endfacet
  facet normal 1 -0 0
    outer loop
      vertex -40.5 43.3013 20
      vertex -40.5 65.0844 19.2313
      vertex -40.5 65.7583 21.1033
    endloop
  endfacet
  facet normal 1 0 0
    outer loop
      vertex -40.5 65.0844 19.2313
      vertex -40.5 60.2805 12.5131
      vertex -40.5 63.3379 15.1954
    endloop
  endfacet
  facet normal 1 0 0
    outer loop
      vertex -40.5 63.3379 15.1954
      vertex -40.5 60.2805 12.5131
      vertex -40.5 62.8667 14.2707
    endloop
  endfacet
  facet normal 1 0 0
    outer loop
      vertex -40.5 65.0844 19.2313
      vertex -40.5 43.3013 20
      vertex -40.5 60.2805 12.5131
    endloop
  endfacet
  facet normal 1 0 0
    outer loop
      vertex -40.5 60.2805 12.5131
      vertex -40.5 43.3013 20
      vertex -40.5 54.1973 8.9155
    endloop
  endfacet
  facet normal 1 0 0
    outer loop
      vertex -40.5 54.1973 8.9155
      vertex -40.5 43.3013 20
      vertex -40.5 47.9002 5.70696
    endloop
  endfacet
  facet normal 1 -0 0
    outer loop
      vertex -40.5 5.125 99.875
      vertex -40.5 65.7583 21.1033
      vertex -40.5 12.1769 113.909
    endloop
  endfacet
  facet normal 1 0 0
    outer loop
      vertex -40.5 5.125 99.875
      vertex -40.5 12.1769 113.909
      vertex -40.5 8.77333 114.448
    endloop
  endfacet
  facet normal 1 0 0
    outer loop
      vertex -40.5 5.125 99.875
      vertex -40.5 8.77333 114.448
      vertex -40.5 5.125 114.793
    endloop
  endfacet
  facet normal 1 0 0
    outer loop
      vertex -40.5 65.7583 21.1033
      vertex -40.5 5.125 99.875
      vertex -40.5 43.3013 20
    endloop
  endfacet
  facet normal 1 0 0
    outer loop
      vertex -40.5 5.125 99.875
      vertex -40.5 0 95
      vertex -40.5 43.3013 20
    endloop
  endfacet
  facet normal 1 -0 0
    outer loop
      vertex -40.5 -5.125 99.875
      vertex -40.5 0 95
      vertex -40.5 5.125 99.875
    endloop
  endfacet
  facet normal 1 -0 0
    outer loop
      vertex -40.5 -12.1769 113.909
      vertex -40.5 -5.125 99.875
      vertex -40.5 -8.77333 114.448
    endloop
  endfacet
  facet normal 1 0 0
    outer loop
      vertex -40.5 -5.125 99.875
      vertex -40.5 -43.3013 20
      vertex -40.5 0 95
    endloop
  endfacet
  facet normal 1 0 0
    outer loop
      vertex -40.5 -65.7583 21.1033
      vertex -40.5 -5.125 99.875
      vertex -40.5 -12.1769 113.909
    endloop
  endfacet
  facet normal 1 0 0
    outer loop
      vertex -40.5 -43.3013 20
      vertex -40.5 -54.1973 8.9155
      vertex -40.5 -47.9002 5.70696
    endloop
  endfacet
  facet normal 1 0 0
    outer loop
      vertex -40.5 -5.125 99.875
      vertex -40.5 -65.7583 21.1033
      vertex -40.5 -43.3013 20
    endloop
  endfacet
  facet normal 1 0 -0
    outer loop
      vertex -40.5 -65.0844 19.2313
      vertex -40.5 -43.3013 20
      vertex -40.5 -65.7583 21.1033
    endloop
  endfacet
  facet normal 1 0 0
    outer loop
      vertex -40.5 -43.3013 20
      vertex -40.5 -60.2805 12.5131
      vertex -40.5 -54.1973 8.9155
    endloop
  endfacet
  facet normal 1 0 0
    outer loop
      vertex -40.5 -43.3013 20
      vertex -40.5 -65.0844 19.2313
      vertex -40.5 -60.2805 12.5131
    endloop
  endfacet
  facet normal 1 0 0
    outer loop
      vertex -40.5 -60.2805 12.5131
      vertex -40.5 -63.3379 15.1954
      vertex -40.5 -62.8667 14.2707
    endloop
  endfacet
  facet normal 1 0 0
    outer loop
      vertex -40.5 -60.2805 12.5131
      vertex -40.5 -65.0844 19.2313
      vertex -40.5 -63.3379 15.1954
    endloop
  endfacet
  facet normal 1 0 0
    outer loop
      vertex -40.5 43.3013 20
      vertex -40.5 41.414 2.90015
      vertex -40.5 47.9002 5.70696
    endloop
  endfacet
  facet normal 1 0 0
    outer loop
      vertex -40.5 43.3013 20
      vertex -40.5 34.7644 0.506143
      vertex -40.5 41.414 2.90015
    endloop
  endfacet
  facet normal 1 0 0
    outer loop
      vertex -40.5 43.3013 20
      vertex -40.5 33.0223 6.78862e-007
      vertex -40.5 34.7644 0.506143
    endloop
  endfacet
  facet normal 1 0 0
    outer loop
      vertex -40.5 43.3013 20
      vertex -40.5 -33.0223 2.74813e-007
      vertex -40.5 33.0223 6.78862e-007
    endloop
  endfacet
  facet normal 1 -0 0
    outer loop
      vertex -40.5 -43.3013 20
      vertex -40.5 -33.0223 2.74813e-007
      vertex -40.5 43.3013 20
    endloop
  endfacet
  facet normal 1 0 0
    outer loop
      vertex -40.5 -33.0223 2.74813e-007
      vertex -40.5 -43.3013 20
      vertex -40.5 -34.7644 0.506143
    endloop
  endfacet
  facet normal 1 0 0
    outer loop
      vertex -40.5 -34.7644 0.506143
      vertex -40.5 -43.3013 20
      vertex -40.5 -41.414 2.90015
    endloop
  endfacet
  facet normal 1 0 0
    outer loop
      vertex -40.5 -41.414 2.90015
      vertex -40.5 -43.3013 20
      vertex -40.5 -47.9002 5.70696
    endloop
  endfacet
  facet normal 0 -0.397148 0.917755
    outer loop
      vertex -40.5 47.9002 5.70696
      vertex 40.5 41.414 2.90015
      vertex 40.5 47.9002 5.70696
    endloop
  endfacet
  facet normal 0 -0.397148 0.917755
    outer loop
      vertex 40.5 41.414 2.90015
      vertex -40.5 47.9002 5.70696
      vertex -40.5 41.414 2.90015
    endloop
  endfacet
  facet normal -0 0.338738 0.940881
    outer loop
      vertex -40.5 -34.7644 0.506143
      vertex 40.5 -41.414 2.90015
      vertex 40.5 -34.7644 0.506143
    endloop
  endfacet
  facet normal 0 0.338738 0.940881
    outer loop
      vertex 40.5 -41.414 2.90015
      vertex -40.5 -34.7644 0.506143
      vertex -40.5 -41.414 2.90015
    endloop
  endfacet
  facet normal -0 0.562083 0.827081
    outer loop
      vertex -40.5 -60.2805 12.5131
      vertex 40.5 -62.8667 14.2707
      vertex 40.5 -60.2805 12.5131
    endloop
  endfacet
  facet normal 0 0.562083 0.827081
    outer loop
      vertex 40.5 -62.8667 14.2707
      vertex -40.5 -60.2805 12.5131
      vertex -40.5 -62.8667 14.2707
    endloop
  endfacet
  facet normal 0 -0.338738 0.940881
    outer loop
      vertex -40.5 41.414 2.90015
      vertex 40.5 34.7644 0.506143
      vertex 40.5 41.414 2.90015
    endloop
  endfacet
  facet normal 0 -0.338738 0.940881
    outer loop
      vertex 40.5 34.7644 0.506143
      vertex -40.5 41.414 2.90015
      vertex -40.5 34.7644 0.506143
    endloop
  endfacet
  facet normal 0 -0.278991 0.960294
    outer loop
      vertex -40.5 34.7644 0.506143
      vertex 40.5 33.0223 6.78862e-007
      vertex 40.5 34.7644 0.506143
    endloop
  endfacet
  facet normal 0 -0.278991 0.960294
    outer loop
      vertex 40.5 33.0223 6.78862e-007
      vertex -40.5 34.7644 0.506143
      vertex -40.5 33.0223 6.78862e-007
    endloop
  endfacet
  facet normal 0 -0.509042 0.860742
    outer loop
      vertex -40.5 60.2805 12.5131
      vertex 40.5 54.1973 8.9155
      vertex 40.5 60.2805 12.5131
    endloop
  endfacet
  facet normal 0 -0.509042 0.860742
    outer loop
      vertex 40.5 54.1973 8.9155
      vertex -40.5 60.2805 12.5131
      vertex -40.5 54.1973 8.9155
    endloop
  endfacet
  facet normal 0 -0.562083 0.827081
    outer loop
      vertex -40.5 62.8667 14.2707
      vertex 40.5 60.2805 12.5131
      vertex 40.5 62.8667 14.2707
    endloop
  endfacet
  facet normal 0 -0.562083 0.827081
    outer loop
      vertex 40.5 60.2805 12.5131
      vertex -40.5 62.8667 14.2707
      vertex -40.5 60.2805 12.5131
    endloop
  endfacet
  facet normal 0 -0.45399 0.891007
    outer loop
      vertex -40.5 54.1973 8.9155
      vertex 40.5 47.9002 5.70696
      vertex 40.5 54.1973 8.9155
    endloop
  endfacet
  facet normal 0 -0.45399 0.891007
    outer loop
      vertex 40.5 47.9002 5.70696
      vertex -40.5 54.1973 8.9155
      vertex -40.5 47.9002 5.70696
    endloop
  endfacet
  facet normal -0 0.509042 0.860742
    outer loop
      vertex -40.5 -54.1973 8.9155
      vertex 40.5 -60.2805 12.5131
      vertex 40.5 -54.1973 8.9155
    endloop
  endfacet
  facet normal 0 0.509042 0.860742
    outer loop
      vertex 40.5 -60.2805 12.5131
      vertex -40.5 -54.1973 8.9155
      vertex -40.5 -60.2805 12.5131
    endloop
  endfacet
  facet normal -0 0.397148 0.917755
    outer loop
      vertex -40.5 -41.414 2.90015
      vertex 40.5 -47.9002 5.70696
      vertex 40.5 -41.414 2.90015
    endloop
  endfacet
  facet normal 0 0.397148 0.917755
    outer loop
      vertex 40.5 -47.9002 5.70696
      vertex -40.5 -41.414 2.90015
      vertex -40.5 -47.9002 5.70696
    endloop
  endfacet
  facet normal -0 0.278991 0.960294
    outer loop
      vertex -40.5 -33.0223 2.74813e-007
      vertex 40.5 -34.7644 0.506143
      vertex 40.5 -33.0223 2.74813e-007
    endloop
  endfacet
  facet normal 0 0.278991 0.960294
    outer loop
      vertex 40.5 -34.7644 0.506143
      vertex -40.5 -33.0223 2.74813e-007
      vertex -40.5 -34.7644 0.506143
    endloop
  endfacet
  facet normal -0 0.45399 0.891007
    outer loop
      vertex -40.5 -47.9002 5.70696
      vertex 40.5 -54.1973 8.9155
      vertex 40.5 -47.9002 5.70696
    endloop
  endfacet
  facet normal 0 0.45399 0.891007
    outer loop
      vertex 40.5 -54.1973 8.9155
      vertex -40.5 -47.9002 5.70696
      vertex -40.5 -54.1973 8.9155
    endloop
  endfacet
  facet normal 0 0.866025 0.5
    outer loop
      vertex -40.5 65.7583 21.1033
      vertex -45.5 12.1769 113.909
      vertex -40.5 12.1769 113.909
    endloop
  endfacet
  facet normal 0 0.866025 0.5
    outer loop
      vertex -45.5 12.1769 113.909
      vertex -40.5 65.7583 21.1033
      vertex -45.5 65.7583 21.1033
    endloop
  endfacet
  facet normal 0 -0.866025 0.5
    outer loop
      vertex -45.5 -65.7583 21.1033
      vertex -40.5 -12.1769 113.909
      vertex -45.5 -12.1769 113.909
    endloop
  endfacet
  facet normal 0 -0.866025 0.5
    outer loop
      vertex -40.5 -12.1769 113.909
      vertex -45.5 -65.7583 21.1033
      vertex -40.5 -65.7583 21.1033
    endloop
  endfacet
  facet normal -1 0 0
    outer loop
      vertex -45.5 53.6006 8.04756e-007
      vertex -45.5 -43.3013 20
      vertex -45.5 43.3013 20
    endloop
  endfacet
  facet normal -1 0 -0
    outer loop
      vertex -45.5 -43.3013 20
      vertex -45.5 53.6006 8.04756e-007
      vertex -45.5 -53.6006 1.48918e-007
    endloop
  endfacet
  facet normal -1 0 0
    outer loop
      vertex -45.5 43.3013 20
      vertex -45.5 65.0844 19.2313
      vertex -45.5 63.3379 15.1954
    endloop
  endfacet
  facet normal -1 0 0
    outer loop
      vertex -45.5 43.3013 20
      vertex -45.5 63.3379 15.1954
      vertex -45.5 61.3415 11.2772
    endloop
  endfacet
  facet normal -1 0 0
    outer loop
      vertex -45.5 43.3013 20
      vertex -45.5 61.3415 11.2772
      vertex -45.5 59.103 7.49212
    endloop
  endfacet
  facet normal -1 0 0
    outer loop
      vertex -45.5 43.3013 20
      vertex -45.5 59.103 7.49212
      vertex -45.5 56.6312 3.85503
    endloop
  endfacet
  facet normal -1 0 0
    outer loop
      vertex -45.5 43.3013 20
      vertex -45.5 56.6312 3.85503
      vertex -45.5 53.9359 0.380322
    endloop
  endfacet
  facet normal -1 0 0
    outer loop
      vertex -45.5 43.3013 20
      vertex -45.5 53.9359 0.380322
      vertex -45.5 53.6006 8.04756e-007
    endloop
  endfacet
  facet normal -1 0 0
    outer loop
      vertex -45.5 65.0844 19.2313
      vertex -45.5 43.3013 20
      vertex -45.5 65.7583 21.1033
    endloop
  endfacet
  facet normal -1 0 0
    outer loop
      vertex -45.5 5.125 99.875
      vertex -45.5 65.7583 21.1033
      vertex -45.5 43.3013 20
    endloop
  endfacet
  facet normal -1 0 0
    outer loop
      vertex -45.5 65.7583 21.1033
      vertex -45.5 5.125 99.875
      vertex -45.5 12.1769 113.909
    endloop
  endfacet
  facet normal -1 -0 0
    outer loop
      vertex -45.5 12.1769 113.909
      vertex -45.5 5.125 99.875
      vertex -45.5 8.77333 114.448
    endloop
  endfacet
  facet normal -1 0 0
    outer loop
      vertex -45.5 0 95
      vertex -45.5 5.125 99.875
      vertex -45.5 43.3013 20
    endloop
  endfacet
  facet normal -1 0 0
    outer loop
      vertex -45.5 0 95
      vertex -45.5 -5.125 99.875
      vertex -45.5 5.125 99.875
    endloop
  endfacet
  facet normal -1 0 0
    outer loop
      vertex -45.5 -5.125 99.875
      vertex -45.5 -8.77333 114.448
      vertex -45.5 -5.125 114.793
    endloop
  endfacet
  facet normal -1 0 0
    outer loop
      vertex -45.5 -5.125 99.875
      vertex -45.5 -12.1769 113.909
      vertex -45.5 -8.77333 114.448
    endloop
  endfacet
  facet normal -1 0 0
    outer loop
      vertex -45.5 -43.3013 20
      vertex -45.5 -5.125 99.875
      vertex -45.5 0 95
    endloop
  endfacet
  facet normal -1 0 0
    outer loop
      vertex -45.5 -65.7583 21.1033
      vertex -45.5 -5.125 99.875
      vertex -45.5 -43.3013 20
    endloop
  endfacet
  facet normal -1 0 0
    outer loop
      vertex -45.5 -53.9359 0.380322
      vertex -45.5 -43.3013 20
      vertex -45.5 -53.6006 1.48918e-007
    endloop
  endfacet
  facet normal -1 0 0
    outer loop
      vertex -45.5 -43.3013 20
      vertex -45.5 -53.9359 0.380322
      vertex -45.5 -56.6312 3.85503
    endloop
  endfacet
  facet normal -1 0 0
    outer loop
      vertex -45.5 -59.103 7.49212
      vertex -45.5 -43.3013 20
      vertex -45.5 -56.6312 3.85503
    endloop
  endfacet
  facet normal -1 0 0
    outer loop
      vertex -45.5 -61.3415 11.2772
      vertex -45.5 -43.3013 20
      vertex -45.5 -59.103 7.49212
    endloop
  endfacet
  facet normal -1 0 0
    outer loop
      vertex -45.5 -63.3379 15.1954
      vertex -45.5 -43.3013 20
      vertex -45.5 -61.3415 11.2772
    endloop
  endfacet
  facet normal -1 0 0
    outer loop
      vertex -45.5 -65.0844 19.2313
      vertex -45.5 -43.3013 20
      vertex -45.5 -63.3379 15.1954
    endloop
  endfacet
  facet normal -1 -0 0
    outer loop
      vertex -45.5 -43.3013 20
      vertex -45.5 -65.0844 19.2313
      vertex -45.5 -65.7583 21.1033
    endloop
  endfacet
  facet normal -1 -0 0
    outer loop
      vertex -45.5 -5.125 99.875
      vertex -45.5 -65.7583 21.1033
      vertex -45.5 -12.1769 113.909
    endloop
  endfacet
  facet normal -1 -0 0
    outer loop
      vertex -45.5 8.77333 114.448
      vertex -45.5 5.125 99.875
      vertex -45.5 5.125 114.793
    endloop
  endfacet
  facet normal 0 0.94088 -0.338739
    outer loop
      vertex -40.5 65.0844 19.2313
      vertex -45.5 65.7583 21.1033
      vertex -40.5 65.7583 21.1033
    endloop
  endfacet
  facet normal 0 0.94088 -0.338739
    outer loop
      vertex -45.5 65.7583 21.1033
      vertex -40.5 65.0844 19.2313
      vertex -45.5 65.0844 19.2313
    endloop
  endfacet
  facet normal -0 0.156435 0.987688
    outer loop
      vertex -45.5 12.1769 113.909
      vertex -40.5 8.77333 114.448
      vertex -40.5 12.1769 113.909
    endloop
  endfacet
  facet normal 0 0.156435 0.987688
    outer loop
      vertex -40.5 8.77333 114.448
      vertex -45.5 12.1769 113.909
      vertex -45.5 8.77333 114.448
    endloop
  endfacet
  facet normal 0 0.917755 -0.397147
    outer loop
      vertex -40.5 63.3379 15.1954
      vertex -45.5 65.0844 19.2313
      vertex -40.5 65.0844 19.2313
    endloop
  endfacet
  facet normal 0 0.917755 -0.397147
    outer loop
      vertex -45.5 65.0844 19.2313
      vertex -40.5 63.3379 15.1954
      vertex -45.5 63.3379 15.1954
    endloop
  endfacet
  facet normal 0 -0.156435 0.987688
    outer loop
      vertex -45.5 -8.77333 114.448
      vertex -40.5 -12.1769 113.909
      vertex -40.5 -8.77333 114.448
    endloop
  endfacet
  facet normal 0 -0.156435 0.987688
    outer loop
      vertex -40.5 -12.1769 113.909
      vertex -45.5 -8.77333 114.448
      vertex -45.5 -12.1769 113.909
    endloop
  endfacet
  facet normal 0 -0.917755 -0.397147
    outer loop
      vertex -45.5 -63.3379 15.1954
      vertex -40.5 -65.0844 19.2313
      vertex -45.5 -65.0844 19.2313
    endloop
  endfacet
  facet normal 0 -0.917755 -0.397147
    outer loop
      vertex -40.5 -65.0844 19.2313
      vertex -45.5 -63.3379 15.1954
      vertex -40.5 -63.3379 15.1954
    endloop
  endfacet
  facet normal 0 -0.94088 -0.338739
    outer loop
      vertex -45.5 -65.0844 19.2313
      vertex -40.5 -65.7583 21.1033
      vertex -45.5 -65.7583 21.1033
    endloop
  endfacet
  facet normal 0 -0.94088 -0.338739
    outer loop
      vertex -40.5 -65.7583 21.1033
      vertex -45.5 -65.0844 19.2313
      vertex -40.5 -65.0844 19.2313
    endloop
  endfacet
  facet normal -0 0.0941092 0.995562
    outer loop
      vertex -45.5 8.77333 114.448
      vertex -40.5 5.125 114.793
      vertex -40.5 8.77333 114.448
    endloop
  endfacet
  facet normal 0 0.0941092 0.995562
    outer loop
      vertex -40.5 5.125 114.793
      vertex -45.5 8.77333 114.448
      vertex -45.5 5.125 114.793
    endloop
  endfacet
  facet normal 0 -0.0941092 0.995562
    outer loop
      vertex -45.5 -5.125 114.793
      vertex -40.5 -8.77333 114.448
      vertex -40.5 -5.125 114.793
    endloop
  endfacet
  facet normal 0 -0.0941092 0.995562
    outer loop
      vertex -40.5 -8.77333 114.448
      vertex -45.5 -5.125 114.793
      vertex -45.5 -8.77333 114.448
    endloop
  endfacet
  facet normal 0 -2.20242e-008 1
    outer loop
      vertex -45.5 43.3013 20
      vertex -40.5 -43.3013 20
      vertex -40.5 43.3013 20
    endloop
  endfacet
  facet normal 0 -2.20242e-008 1
    outer loop
      vertex -40.5 -43.3013 20
      vertex -45.5 43.3013 20
      vertex -45.5 -43.3013 20
    endloop
  endfacet
  facet normal 0 -0.866025 -0.5
    outer loop
      vertex -45.5 43.3013 20
      vertex -40.5 0 95
      vertex -45.5 0 95
    endloop
  endfacet
  facet normal 0 -0.866025 -0.5
    outer loop
      vertex -40.5 0 95
      vertex -45.5 43.3013 20
      vertex -40.5 43.3013 20
    endloop
  endfacet
  facet normal 0 0.866025 -0.5
    outer loop
      vertex -40.5 -43.3013 20
      vertex -45.5 0 95
      vertex -40.5 0 95
    endloop
  endfacet
  facet normal 0 0.866025 -0.5
    outer loop
      vertex -45.5 0 95
      vertex -40.5 -43.3013 20
      vertex -45.5 -43.3013 20
    endloop
  endfacet
  facet normal -0 0 1
    outer loop
      vertex -45.5 5.125 99.875
      vertex -40.5 -5.125 99.875
      vertex -40.5 5.125 99.875
    endloop
  endfacet
  facet normal 0 0 1
    outer loop
      vertex -40.5 -5.125 99.875
      vertex -45.5 5.125 99.875
      vertex -45.5 -5.125 99.875
    endloop
  endfacet
  facet normal 0 1 -0
    outer loop
      vertex -40.5 -5.125 99.875
      vertex -45.5 -5.125 114.793
      vertex -40.5 -5.125 114.793
    endloop
  endfacet
  facet normal 0 1 0
    outer loop
      vertex -45.5 -5.125 114.793
      vertex -40.5 -5.125 99.875
      vertex -45.5 -5.125 99.875
    endloop
  endfacet
  facet normal 0 -1 0
    outer loop
      vertex -45.5 5.125 99.875
      vertex -40.5 5.125 114.793
      vertex -45.5 5.125 114.793
    endloop
  endfacet
  facet normal 0 -1 -0
    outer loop
      vertex -40.5 5.125 114.793
      vertex -45.5 5.125 99.875
      vertex -40.5 5.125 99.875
    endloop
  endfacet
endsolid OpenSCAD_Model
